<?xml version="1.0" encoding="UTF-8"?>
<!DOCTYPE svg PUBLIC "-//W3C//DTD SVG 1.1//EN" "http://www.w3.org/Graphics/SVG/1.1/DTD/svg11.dtd">
<!-- Creator: CorelDRAW 2020 (64 Bit) -->
<svg xmlns="http://www.w3.org/2000/svg" xml:space="preserve" width="100px" height="90px" version="1.1" style="shape-rendering:geometricPrecision; text-rendering:geometricPrecision; image-rendering:optimizeQuality; fill-rule:evenodd; clip-rule:evenodd"
viewBox="0 0 184.15 165.18"
 xmlns:xlink="http://www.w3.org/1999/xlink"
 xmlns:xodm="http://www.corel.com/coreldraw/odm/2003">
 <defs>
  <style type="text/css">
   <![CDATA[
    .fil15 {fill:#0A3A35}
    .fil3 {fill:#11716D}
    .fil17 {fill:#11716E}
    .fil13 {fill:#134647}
    .fil19 {fill:#2A160D}
    .fil10 {fill:#2A1708}
    .fil0 {fill:#2B180A}
    .fil9 {fill:#CB2303}
    .fil12 {fill:#E57002}
    .fil1 {fill:#F13B09}
    .fil4 {fill:#F13D0A}
    .fil14 {fill:#FADA9E}
    .fil16 {fill:#FBAC0C}
    .fil6 {fill:#FBD99C}
    .fil7 {fill:#FCB21B}
    .fil18 {fill:#FCCF50}
    .fil2 {fill:#FCDA9D}
    .fil5 {fill:#FEAA0E}
    .fil8 {fill:#FEF3D6}
    .fil20 {fill:#FEF6CA}
    .fil11 {fill:#FFAD11}
   ]]>
  </style>
 </defs>
 <g id="Camada_x0020_1">
  <metadata id="CorelCorpID_0Corel-Layer"/>
  <g id="_2960662200336">
   <path class="fil0" d="M40.28 138.04c0.57,0.09 1.98,0.75 2.94,0.99 1.2,0.31 2.52,0.44 3.76,0.24 2.07,-0.33 4.31,-1.87 4.7,-3.68l3.7 1.2c-0.45,3.72 0.73,10.89 2.28,13.77 -2.25,-0.53 -9.25,-5.42 -11.44,-7.12l-5.07 -4.48c-0.44,-0.53 -0.51,-0.45 -0.87,-0.92zm95.42 -2.93c1.19,5.78 7.2,13.36 7.3,14.66 -5.41,-0.1 -12.55,-4.68 -15.07,-7.8 -0.62,-0.77 -1.12,-1.32 -1.79,-2.11l-1.22 -1.71c-0.29,-0.33 -0.09,-0.25 -0.55,-0.37 -0.34,3.38 2.47,11.27 1.73,12.67 -0.69,0.69 -5.07,-2.83 -5.77,-3.62l-2.74 -3.09c-1.91,-2.42 -4.09,-6.89 -4.98,-10.78 -1.03,-4.47 -1.3,-9.19 0.16,-13.59 2.84,-8.54 10.62,-12.64 19.55,-10.99 4.98,0.92 9.2,3.68 12.95,6.7 2.32,1.87 3.86,3.68 5.67,6.01 1.31,1.7 4.99,8.47 4.33,11.39 -1.84,0.68 -5.32,-2.72 -6.34,-3.54l-2.82 -2.44c-0.68,-0.56 -2.4,-1.69 -3.23,-2.01l4.39 7.86c1.32,2.32 2.67,6 3.27,9.02 0.27,1.38 0.31,1.69 -1.07,1.65 -3.36,-0.11 -8.03,-3.16 -10.5,-5.09l-3.27 -2.82zm-74.13 -27.74c-1.06,2.25 -1.9,2.69 -4.93,1.68 -1.92,-0.63 -3.27,-1.53 -4.67,-2.71 -3.87,-3.24 -3.81,-10 -3.01,-11.25 0.54,0.87 0.87,1.72 1.53,2.6 1.51,2.03 3.56,4.07 6.09,4.6 1.89,0.39 0.44,0.83 2.62,3.05 1.28,1.31 2.1,1.73 2.37,2.03zm5.26 -10.03c-0.66,-0.53 -0.62,-1.5 -0.53,-2.62 0.22,-2.51 -0.29,-1.38 7.14,-1.38 -0.7,3.07 -5.52,4.38 -6.61,4zm-21.52 -8.11c-2.84,4.87 -3.08,11.57 -0.39,16.74 2.23,4.31 7.59,7.94 12.45,8.07 -0.88,2.71 -4.45,5.44 -5.54,15.69 -3.05,0.11 -7.85,-2.67 -10.23,-4.85 -1.27,-1.17 -1.46,-1.93 -2.37,-2.65 0.51,3.85 3.26,8.19 5.52,11.18l0.59 1.08c0.04,0.43 0.07,0.1 -0.09,0.36 -2.06,0.9 -7.78,-2.79 -8.92,-3.73 -1.92,-1.57 -3.47,-3.06 -4.94,-4.99 -6.63,-8.68 -6.17,-19.18 -7.35,-21.62 -0.63,0.16 -0.59,0.28 -1.04,1.65 -1.17,3.58 -0.74,3.41 -1.16,6.99 -3.97,-1.23 -7.87,-11.61 -7.46,-14.78 -1.12,-1.75 0.2,-10 0.89,-12.18 6.19,-0.71 11.61,3.01 19.07,-3.56 0.86,-0.76 2.68,-0.26 4.05,-0.08 3.64,0.48 5.34,0.13 8.72,-0.55l-0.31 6.68 -0.99 -0.24 -0.5 0.79zm98.53 19.68c-0.07,-0.21 0.02,-0.1 -0.25,-0.32 -1.09,-0.87 -6.08,-3.17 -7.39,-3.5l0.15 -1c1.47,0.46 3.06,1.14 4.92,0.96 2.27,-0.23 2.05,-1.7 1.98,-3.9 -0.1,-3.6 -0.85,-6.87 -1.46,-10.25 1.96,0.71 3.57,1.18 5.4,0.25 1.36,-4.23 -0.74,-9.14 -1.92,-13.09l1.74 2.16c0.55,0.69 1.17,1.35 1.74,1.97 1.07,1.16 2.55,2.34 4.09,3.31 4.07,2.56 6.26,2.68 11.74,3.24 -0.58,6.74 -0.23,10.46 -2.51,17.62 -2.45,7.67 -2.72,7.59 -6.01,14.45 -0.69,-0.56 -1.89,-2.48 -2.54,-3.28 -2.73,-3.36 -3.35,-3.57 -6.04,-6.02 -0.82,-0.75 -2.54,-2.06 -3.64,-2.6zm27.05 -25.65c-3.55,1.82 -10.5,1.21 -13.73,-0.3 -1.87,-0.86 -3.4,-2.04 -4.84,-3.36 -1.17,-1.07 -3.54,-3.95 -2.42,-5.71 0.32,-0.29 1,-0.8 1.31,-0.98 0.51,-0.12 4.38,2.08 5.7,2.67 1.01,0.45 5.33,2.21 5.92,2.16 -0.78,-1.95 -3.23,-3.91 -4.33,-5.11 -2.88,-3.14 -4.14,-2.57 -6.35,-3.86l0.14 -4.09c2.85,-0.01 5.96,0.74 8.08,1.97 2.08,1.22 3.89,2.72 5.41,4.56 0.24,0.29 0.39,0.39 0.68,0.68l1.63 2.06c0.67,0.85 1.36,1.8 2.12,2.76l1.15 1.38c0.47,0.53 0.52,0.75 1.05,1.27l2.61 2.32 -2.01 1.01c-0.58,0.21 -1.48,0.45 -2.12,0.57zm-28.12 -18.81c0.05,-0.89 -0.07,-0.67 0.53,-1.04 0.29,-0.18 0.66,-0.28 1,-0.33 2.6,-0.43 4.52,1.83 4.31,3.8 -0.09,2.9 -2.16,6.13 -4.79,5.47 -1.42,-0.36 -1.66,-1.91 -1.61,-3.52 0.03,-0.8 0.17,-1.56 0.18,-2.35 0.01,-1.24 -0.12,-1.6 0.38,-2.03zm-125.47 -23.73c4.75,-0.64 7.7,3.33 9.38,6.97 1.9,4.14 2.14,9.72 1.57,14.49 -2.22,18.55 -17.48,27.02 -22.91,12.88 -4.91,-12.79 1.81,-32.97 11.96,-34.34zm44.4 22l0.72 2.32c0.45,1.53 0.11,5.5 -0.67,6.71 -0.32,1.71 -1.86,4.12 -2.87,4.65 -1.15,0.61 -5.42,-0.03 -7,-0.01 0.25,-0.98 0.82,-1.84 1.25,-2.81 0.42,-0.97 0.67,-2.1 1.05,-2.95 0.42,-2.53 0.78,-3.95 0.86,-6.67l-0.07 -2.66 -0.46 -2.55c1.17,-0.13 3.26,0.72 4.28,1.21 1.25,0.6 2.52,1.38 2.91,2.76zm20.92 19.44c0.15,0.15 0.14,0.13 0.3,0.39 0.03,0.04 0.06,0.09 0.08,0.13 0.03,0.05 0.05,0.1 0.07,0.14 1.59,3.25 1.39,8.12 0.41,11.56 -1.18,4.07 -3.19,6.68 -5.68,8.54 -2.58,1.91 -7.18,3.53 -11.09,2.69 -4.87,-1.05 -5.72,-4.13 -6.59,-7.58 1.44,1.06 1.05,1.53 3.22,2.38 7.31,2.88 14.22,-3.35 17.09,-8.88 0.99,-1.9 2.34,-6.02 2.14,-8.6 -1.02,-0.08 -1.32,0.86 -2.4,1.21 -0.18,0.57 -0.57,0.65 -1.14,1.12 -4.86,4.02 -8.88,1.83 -13.86,2.51 -6.5,0.89 -8.3,7.61 -9.39,9.12 -2.07,-0.76 -3.94,-3.96 -4.59,-6.92 -0.67,-3.04 -0.69,-7.12 0.36,-9.99 3.24,0.03 6.99,0.84 9.48,-0.83 3.88,-2.6 5.88,-10.02 4.72,-15.63 -0.48,-2.31 -1.67,-4.47 -3.64,-5.69l-0.7 -0.49c5.8,-4.7 12.46,0.53 14.75,6.69 2,5.34 1.01,9.1 4.23,14.47 0.46,0.78 2.21,2.84 2.23,3.66zm-32.44 -25.33c0.43,0.46 0.78,2.03 0.91,2.84 1,3.57 0.31,8.36 -0.78,11.75 -1.68,3.55 -3.24,7.97 -7.96,7.9 -1.34,-0.01 -3.57,0.12 -4.61,-0.56 0.32,-0.57 0.74,-1.22 1.15,-1.89 1.77,-2.95 2.03,-4.87 2.83,-6.36 0.96,-3.99 1.92,-8.09 1.41,-12.4l-0.28 -3.01 -0.62 -3.13c4.07,0.66 6.67,1.84 7.95,4.86zm11.78 58.7c0.33,-0.56 3.82,-5.84 4.34,-6.03 3.99,0.08 6.42,0.28 9.99,-1.28 5.34,-2.34 5.67,-4.07 6.97,-4.97 0.52,-1.03 2.34,-2.6 3.7,-6.96 0.92,-2.95 1.23,-6.25 0.94,-9.55 -0.68,-7.91 -5.25,-8.62 -6.36,-14.84 -1.26,-7.15 -1.83,-11.01 -5.83,-15.42 -1.48,-1.63 -3.33,-3.26 -6.39,-4.12 -3.71,-1.04 -5.47,-0.04 -8.48,1.03 0.1,-1.18 0.43,-2.19 0.78,-3.28 0.52,-1.62 0.39,-1.58 1.79,-2.27 5.64,-2.81 15.86,-1.91 21.97,-1.48 10.09,0.7 17.81,3.29 25.74,7.05 3.64,1.73 7.57,3.68 10.62,5.73 3.82,2.57 8.45,5.81 11.64,8.81 0.79,0.74 1.43,1.12 2.17,1.92 1.33,1.44 2.45,2.49 3.59,4.6 0.99,1.83 1.78,3.51 2.56,5.6 0.42,1.11 1.73,5.8 1.1,6.63 -0.62,0.42 -1.46,-0.39 -2.16,-0.89 -1.15,-0.81 -5.2,-3.49 -6.08,-3.66 0.12,0.54 0.55,1.25 0.79,1.95l2.08 6.67c0.87,2.75 1.75,6.86 1.67,9.95 -1.69,0 -5.11,-2.47 -6.06,-3.21 -0.9,-0.69 -1.92,-1.36 -2.65,-2.02 -0.45,-0.4 -2.07,-2.08 -2.38,-2.25 -0.08,2.62 2.19,8.18 2.35,10.25 -12.43,0.63 -21.28,8.04 -22.92,19.54 -0.91,6.33 0.43,12.99 2.62,18.09 1.62,3.76 5.73,10.12 9,12.18 -0.95,1.07 -6.88,2.86 -8.57,3.33 -15.46,4.34 -30.57,3.22 -45.38,-2.49 -2.25,-0.87 -1.81,-0.92 -2.78,-3.06 -2.16,-4.8 -2.77,-9.57 -2.79,-14.87 0,-1.41 -0.27,-2.22 2.08,-3.68 0.66,1.28 0.66,5.59 4.89,8.73 3.79,2.81 8.16,-1.74 8.67,-2.97 0.82,0.34 0.68,0.54 1.13,1.15 7.9,11.01 14.08,0.42 13.37,-4.58 -0.15,-1.01 -0.43,-2.69 -0.99,-3.28 -0.91,1.98 -0.9,4.04 -2.13,5.81 -0.79,1.12 -2.63,3.72 -4.56,2.4 -4.76,-3.29 -5.1,-9.6 -5.58,-10.42 -1.57,1.46 -0.92,4.18 -5.81,8.04 -1.16,0.92 -1.68,1.34 -2.76,0.17 -4.53,-4.91 -1.81,-13.07 -1.83,-14.36 -0.26,0.11 -4.93,4.68 -7.69,5.61 -3.4,1.16 -0.19,-6.24 0.28,-7.33 0.82,-1.87 2.29,-4.45 3.35,-5.97zm84.94 -56.64c0.39,-1.65 3.76,-6.88 4.53,-7.76 0.65,-0.75 3.13,-3.24 3.89,-3.72 6.76,-4.2 14.6,-6.31 22.93,-4.25 -0.04,1.11 -1,3.46 -1.38,4.58 -1.15,3.34 -0.62,1.6 -1.8,4.04l-2.24 3.8c-1.51,2.08 -1.79,2.09 -2.62,3.23 -1.19,1.62 -1.54,1.51 -2.38,2.31 -0.58,0.57 0,0.19 -0.7,0.65 -4.9,3.19 -3.57,1.7 -8.2,0.34 -1.75,-0.51 -3.15,-0.77 -4.95,-0.97 0.16,-0.43 1.64,-1.92 1.93,-2.22 0.81,-0.81 1.27,-1.43 1.99,-2.29 0.83,-0.98 3.47,-3.09 3.57,-4.64 -1.79,0.59 -2.08,0.33 -3.96,1.35 -1.27,0.69 -5.05,3.58 -6.19,4.7 -1.18,1.16 -1.11,2.35 -3.51,2.02 -0.41,-0.46 -0.16,-0.32 -0.48,-0.77 -0.38,-0.56 -0.22,0.27 -0.35,-0.34 0,-0.04 -0.06,-0.04 -0.08,-0.06zm-109.99 -10.4c0.57,1.31 1.27,2.24 1.75,3.97 0.37,1.34 0.97,3.43 0.74,4.84 0.87,2.16 -0.27,10.64 -1.41,12.7 -0.86,4.41 -5.1,11.8 -10.71,12.97 -1.73,0.36 -3.6,0.26 -5.37,0.05l-1.62 -0.46c0.92,-0.51 2.48,-1.86 3.19,-2.61 2.06,-2.17 3.44,-4.08 4.81,-6.87 0.27,-0.54 1.5,-3.83 1.53,-3.87 0.65,-2.81 1.26,-5.04 1.51,-8.09 0.29,-3.47 -0.11,-5.54 -0.18,-8.77l-1.11 -4.56c-0.47,-0.42 -0.97,-2.07 -1.33,-2.72 -0.49,-0.85 -1.31,-1.96 -1.56,-2.67 4.72,1.21 7.03,2.41 9.76,6.09zm32.83 -17.89l7.04 -6.03c11.73,-7.32 25.81,-7.85 38.67,-2.57 3.55,1.45 5.06,2.53 7.86,4.41 0.39,0.26 0.85,0.57 1.16,0.78 0.23,0.15 0.39,0.25 0.57,0.4l5.77 5.74c2.91,3.3 6.38,9.8 7.82,13.81 1.46,4.04 2.69,9.37 2.06,13.87 -0.62,-0.54 -0.9,-1.38 -1.27,-2.03 -0.31,-0.54 -0.37,-0.5 -0.72,-1.03 -1.22,-1.85 -4,-5.91 -5.44,-7.41 -1.3,-1.34 -2.76,-3.06 -3.99,-3.99l-2.54 -2.31c-2.7,-2.37 -10.07,-6.56 -13.17,-7.41 0.24,0.3 0.54,0.44 0.8,0.66l7.5 6.34c0.34,0.28 0.58,0.53 0.91,0.85 0.63,0.6 1.09,1 1.66,1.65l3.19 3.64c0.51,0.5 1.07,1.36 1.56,1.94l3.8 4.97c0.94,1.3 5.39,8.31 5.39,9.77l-3.58 -3.02c-0.96,-0.78 -1.96,-1.85 -3.51,-2.91 -0.63,-0.44 -1.19,-0.93 -1.87,-1.43 -2.43,-1.8 -7.38,-5.33 -9.85,-6.52 -4.8,-2.3 -6.86,-3.99 -13.2,-6.05 -6.94,-2.26 -13.4,-4.06 -21.18,-4.9 -6.4,-0.69 -14.58,-0.79 -20.94,1.04 -0.81,0.24 -1.74,0.56 -2.41,0.72 0.41,-1.39 2.44,-4.26 3.27,-5.17 2.18,-2.38 7.59,-4.44 10.84,-5.53 1.31,-0.43 5.18,-1.47 6.03,-2.03 -1.79,-1 -8.2,-0.24 -10.63,0.58 -1.12,0.38 -1.75,0.78 -2.89,1.04l1.29 -1.87zm-40.24 8.62c1.85,-3.57 8.51,-10.85 11.22,-13.3 0.55,-0.5 1.13,-0.98 1.64,-1.49l4.97 -4.17c24.51,-17.79 57.8,-19.28 83.38,-2.4 2.6,1.72 4.74,3.4 7.04,5.23 3.45,2.72 4.38,4.05 7.05,6.56 0.3,0.29 0.46,0.52 0.72,0.85 1.47,1.88 2.2,2.42 4.07,5.09 1.02,1.44 4.33,5.83 4.76,7.33 -0.4,0.49 -0.93,0.7 -1.45,1.11 -1.56,1.22 -1.49,1.33 -2.52,2.34l-5.6 6.31c-0.4,-0.86 -0.86,-3.05 -1.17,-4.11 -2.39,-7.92 -6.72,-15.46 -12.42,-21.26 -8.02,-8.17 -18.89,-12.5 -30.81,-13.21 -6.57,-0.39 -12.48,0.74 -17.99,2.85 -5.94,2.28 -8.24,4.27 -12.72,7.94 -1.45,1.19 -3.63,3.84 -4.91,5.6 -4.17,5.76 -4.11,7.32 -5.75,9.81 -0.48,0.73 -1.23,1.22 -2.19,2.89 -1.22,2.11 -1.67,3.69 -0.72,6.03 1.08,2.66 1.21,-0.3 0.37,5.88 -0.73,0.09 -2.25,-0.21 -2.93,-0.4 -0.52,-0.38 -0.88,-4.21 -8.87,-6.11 -1.08,-0.26 -3.27,-0.31 -3.92,-0.96 -0.2,-0.2 -0.79,-1.3 -0.95,-1.57 -3.28,-5.48 -8.88,-5.87 -10.3,-6.84zm138.48 27.09c8.19,-4.85 11.38,-12.43 14.83,-20.81 0.35,-0.84 1.14,-2.44 1.27,-3.21 0.33,-1.79 -0.67,-2.05 -1.89,-2.5 -2.09,-0.77 -4.81,-1.49 -7.22,-1.75 -4.36,-0.46 -11.66,0.35 -15.17,2.09 -0.48,-0.41 -2.19,-3.4 -2.66,-4.1 -2.57,-3.83 -5.77,-8.05 -8.84,-11.22 -5,-5.17 -8.04,-8.07 -14.51,-12.19 -10.84,-6.93 -24.55,-12.07 -40.81,-12.58 -25.42,-0.81 -49.29,11.23 -63.81,29.72l-5.52 7.69c-3.22,-0.7 -5.7,-1.29 -9.06,-0.09 -13.31,4.77 -19.56,30.73 -9.92,44.03 1.86,2.56 3.85,3.15 6.01,4.3 -0.32,4.24 -1.64,5.26 -1.03,12.51 0.46,5.47 2.52,11.22 5.56,15.28 1.05,1.4 3.12,3.5 3.2,3.62 0.43,0.69 0.7,1.65 1.1,2.4 1.46,2.72 1.69,3.47 3.56,6.58 14.35,23.89 40.98,39.78 70.62,39.08 11.74,-0.28 23.1,-3.34 33,-8.27 1.49,-0.74 0.99,-0.71 2.77,-0.49 1.07,0.12 1.87,-0.27 2.37,-0.81 1.4,-1.52 0.35,-3.66 -0.33,-5.17 3.68,1.89 6.13,3.85 11.33,4.18 1.69,0.11 5.3,-0.03 5.62,-2.07 0.34,-2.09 -1.12,-4.33 -1.72,-5.84 2.36,0.5 7.74,1.13 8.15,-1.55 0.32,-2.04 -0.77,-7.16 -1.43,-8.94 3.87,0.58 7.23,2.16 5.92,-5.42 -0.68,-3.98 -1.19,-2.02 0.28,-4.63 1.77,-3.14 3.62,-6.63 5.01,-9.99 1.68,-4.09 3.04,-8.15 4.14,-13 0.73,-3.22 2.16,-12.03 1.57,-15.22 0.69,-0.37 11.12,-2.95 11.24,-6.28 0.04,-1.37 -2.06,-2.2 -3.06,-2.8 -2.7,-1.63 -6.05,-6.15 -8.66,-8.85 -2.55,-2.65 -1.5,-0.76 -1.91,-3.7z"/>
   <path class="fil1" d="M95.19 50.1c5.04,-1.21 11.27,2.17 14.12,5.9 4.85,6.37 5.32,14.98 0.77,21.55 -5.27,7.62 -14.47,8.99 -22.16,2.95 -1.45,-1.14 -2.52,-2.74 -3.59,-4.59 -5.05,-8.74 -1.48,-22.84 10.86,-25.81zm-11.93 53.15c0.55,1.07 -3.57,6.35 -4.45,7.12l-2.77 2.48c-0.09,0.06 -0.14,0.09 -0.23,0.15l-1.33 0.82c-2.19,1.17 -2.06,1.25 -4.68,1.93 -1.96,0.51 -6.36,0.8 -7.84,-0.22 -1.06,1.52 -2.53,4.1 -3.35,5.97 -0.47,1.09 -3.68,8.49 -0.28,7.33 2.76,-0.93 7.43,-5.5 7.69,-5.61 0.02,1.29 -2.7,9.45 1.83,14.36 1.08,1.17 1.6,0.75 2.76,-0.17 4.89,-3.86 4.24,-6.58 5.81,-8.04 0.48,0.82 0.82,7.13 5.58,10.42 1.93,1.32 3.77,-1.28 4.56,-2.4 1.23,-1.77 1.22,-3.83 2.13,-5.81 0.56,0.59 0.84,2.27 0.99,3.28 0.71,5 -5.47,15.59 -13.37,4.58 -0.45,-0.61 -0.31,-0.81 -1.13,-1.15 -0.51,1.23 -4.88,5.78 -8.67,2.97 -4.23,-3.14 -4.23,-7.45 -4.89,-8.73 -2.35,1.46 -2.08,2.27 -2.08,3.68 0.02,5.3 0.63,10.07 2.79,14.87 0.97,2.14 0.53,2.19 2.78,3.06 14.81,5.71 29.92,6.83 45.38,2.49 1.69,-0.47 7.62,-2.26 8.57,-3.33 -3.27,-2.06 -7.38,-8.42 -9,-12.18 -2.19,-5.1 -3.53,-11.76 -2.62,-18.09 1.64,-11.5 10.49,-18.91 22.92,-19.54 -0.16,-2.07 -2.43,-7.63 -2.35,-10.25 0.31,0.17 1.93,1.85 2.38,2.25 0.73,0.66 1.75,1.33 2.65,2.02 0.95,0.74 4.37,3.21 6.06,3.21 0.08,-3.09 -0.8,-7.2 -1.67,-9.95l-2.08 -6.67c-0.24,-0.7 -0.67,-1.41 -0.79,-1.95 0.88,0.17 4.93,2.85 6.08,3.66 0.7,0.5 1.54,1.31 2.16,0.89 0.63,-0.83 -0.68,-5.52 -1.1,-6.63 -0.78,-2.09 -1.57,-3.77 -2.56,-5.6 -1.14,-2.11 -2.26,-3.16 -3.59,-4.6 -0.74,-0.8 -1.38,-1.18 -2.17,-1.92 -3.19,-3 -7.82,-6.24 -11.64,-8.81 -3.05,-2.05 -6.98,-4 -10.62,-5.73 -7.93,-3.76 -15.65,-6.35 -25.74,-7.05 -6.11,-0.43 -16.33,-1.33 -21.97,1.48 -1.4,0.69 -1.27,0.65 -1.79,2.27 -0.35,1.09 -0.68,2.1 -0.78,3.28 3.01,-1.07 4.77,-2.07 8.48,-1.03 3.06,0.86 4.91,2.49 6.39,4.12 4,4.41 4.57,8.27 5.83,15.42 1.11,6.22 5.68,6.93 6.36,14.84 0.29,3.3 -0.02,6.6 -0.94,9.55 -1.36,4.36 -3.18,5.93 -3.7,6.96z"/>
   <path class="fil2" d="M29.5 39.22c1.42,0.97 7.02,1.36 10.3,6.84 0.16,0.27 0.75,1.37 0.95,1.57 0.65,0.65 2.84,0.7 3.92,0.96 7.99,1.9 8.35,5.73 8.87,6.11 0.68,0.19 2.2,0.49 2.93,0.4 0.84,-6.18 0.71,-3.22 -0.37,-5.88 -0.95,-2.34 -0.5,-3.92 0.72,-6.03 0.96,-1.67 1.71,-2.16 2.19,-2.89 1.64,-2.49 1.58,-4.05 5.75,-9.81 1.28,-1.76 3.46,-4.41 4.91,-5.6 4.48,-3.67 6.78,-5.66 12.72,-7.94 5.51,-2.11 11.42,-3.24 17.99,-2.85 11.92,0.71 22.79,5.04 30.81,13.21 5.7,5.8 10.03,13.34 12.42,21.26 0.31,1.06 0.77,3.25 1.17,4.11l5.6 -6.31c1.03,-1.01 0.96,-1.12 2.52,-2.34 0.52,-0.41 1.05,-0.62 1.45,-1.11 -0.43,-1.5 -3.74,-5.89 -4.76,-7.33 -1.87,-2.67 -2.6,-3.21 -4.07,-5.09 -0.26,-0.33 -0.42,-0.56 -0.72,-0.85 -2.67,-2.51 -3.6,-3.84 -7.05,-6.56 -2.3,-1.83 -4.44,-3.51 -7.04,-5.23 -25.58,-16.88 -58.87,-15.39 -83.38,2.4l-4.97 4.17c-0.51,0.51 -1.09,0.99 -1.64,1.49 -2.71,2.45 -9.37,9.73 -11.22,13.3z"/>
   <path class="fil3" d="M68.45 32.47c1.14,-0.26 1.77,-0.66 2.89,-1.04 2.43,-0.82 8.84,-1.58 10.63,-0.58 -0.85,0.56 -4.72,1.6 -6.03,2.03 -3.25,1.09 -8.66,3.15 -10.84,5.53 -0.83,0.91 -2.86,3.78 -3.27,5.17 0.67,-0.16 1.6,-0.48 2.41,-0.72 6.36,-1.83 14.54,-1.73 20.94,-1.04 7.78,0.84 14.24,2.64 21.18,4.9 6.34,2.06 8.4,3.75 13.2,6.05 2.47,1.19 7.42,4.72 9.85,6.52 0.68,0.5 1.24,0.99 1.87,1.43 1.55,1.06 2.55,2.13 3.51,2.91l3.58 3.02c0,-1.46 -4.45,-8.47 -5.39,-9.77l-3.8 -4.97c-0.49,-0.58 -1.05,-1.44 -1.56,-1.94l-3.19 -3.64c-0.57,-0.65 -1.03,-1.05 -1.66,-1.65 -0.33,-0.32 -0.57,-0.57 -0.91,-0.85l-7.5 -6.34c-0.26,-0.22 -0.56,-0.36 -0.8,-0.66 3.1,0.85 10.47,5.04 13.17,7.41l2.54 2.31c1.23,0.93 2.69,2.65 3.99,3.99 1.44,1.5 4.22,5.56 5.44,7.41 0.35,0.53 0.41,0.49 0.72,1.03 0.37,0.65 0.65,1.49 1.27,2.03 0.63,-4.5 -0.6,-9.83 -2.06,-13.87 -1.44,-4.01 -4.91,-10.51 -7.82,-13.81l-5.77 -5.74c-0.18,-0.15 -0.34,-0.25 -0.57,-0.4 -0.31,-0.21 -0.77,-0.52 -1.16,-0.78 -2.8,-1.88 -4.31,-2.96 -7.86,-4.41 -12.86,-5.28 -26.94,-4.75 -38.67,2.57l-7.04 6.03 -1.29 1.87z"/>
   <path class="fil1" d="M138.97 137.93c2.47,1.93 7.14,4.98 10.5,5.09 1.38,0.04 1.34,-0.27 1.07,-1.65 -0.6,-3.02 -1.95,-6.7 -3.27,-9.02l-4.39 -7.86c0.83,0.32 2.55,1.45 3.23,2.01l2.82 2.44c1.02,0.82 4.5,4.22 6.34,3.54 0.66,-2.92 -3.02,-9.69 -4.33,-11.39 -1.81,-2.33 -3.35,-4.14 -5.67,-6.01 -3.75,-3.02 -7.97,-5.78 -12.95,-6.7 -8.93,-1.65 -16.71,2.45 -19.55,10.99 -1.46,4.4 -1.19,9.12 -0.16,13.59 0.89,3.89 3.07,8.36 4.98,10.78l2.74 3.09c0.7,0.79 5.08,4.31 5.77,3.62 0.74,-1.4 -2.07,-9.29 -1.73,-12.67 0.46,0.12 0.26,0.04 0.55,0.37l1.22 1.71c0.67,0.79 1.17,1.34 1.79,2.11 2.52,3.12 9.66,7.7 15.07,7.8 -0.1,-1.3 -6.11,-8.88 -7.3,-14.66l3.27 2.82z"/>
   <path class="fil4" d="M14.38 98.37c-0.41,3.17 3.49,13.55 7.46,14.78 0.42,-3.58 -0.01,-3.41 1.16,-6.99 0.45,-1.37 0.41,-1.49 1.04,-1.65 1.18,2.44 0.72,12.94 7.35,21.62 1.47,1.93 3.02,3.42 4.94,4.99 1.14,0.94 6.86,4.63 8.92,3.73 0.16,-0.26 0.13,0.07 0.09,-0.36l-0.59 -1.08c-2.26,-2.99 -5.01,-7.33 -5.52,-11.18 0.91,0.72 1.1,1.48 2.37,2.65 2.38,2.18 7.18,4.96 10.23,4.85 1.09,-10.25 4.66,-12.98 5.54,-15.69 -4.86,-0.13 -10.22,-3.76 -12.45,-8.07 -2.69,-5.17 -2.45,-11.87 0.39,-16.74 -6.98,-0.84 -10.4,-0.39 -16.8,3.14 -1.28,0.7 -2.4,1.1 -3.49,1.79l-3.3 1.75c-1.16,0.7 -2.24,1.23 -3.55,1.55 -1.08,0.26 -1.31,0.11 -2.29,-0.22 -0.34,-0.11 -0.65,-0.23 -1.01,-0.37l-0.52 -0.18 0.03 1.68z"/>
   <path class="fil5" d="M73.55 71.67c1.14,-0.26 1.84,0.79 1.5,1.97 -0.19,0.66 -1.21,1.7 -1.98,1.83 -2.6,0.45 -1.97,-3.23 0.48,-3.8zm6.62 12.47c0.2,-1.51 1.92,-1.22 2.45,-1.98 -0.02,-0.82 -1.77,-2.88 -2.23,-3.66 -3.22,-5.37 -2.23,-9.13 -4.23,-14.47 -2.29,-6.16 -8.95,-11.39 -14.75,-6.69l0.7 0.49c1.97,1.22 3.16,3.38 3.64,5.69 1.16,5.61 -0.84,13.03 -4.72,15.63 -2.49,1.67 -6.24,0.86 -9.48,0.83 -1.05,2.87 -1.03,6.95 -0.36,9.99 0.65,2.96 2.52,6.16 4.59,6.92 1.09,-1.51 2.89,-8.23 9.39,-9.12 4.98,-0.68 9,1.51 13.86,-2.51 0.57,-0.47 0.96,-0.55 1.14,-1.12z"/>
   <path class="fil6" d="M147.19 91.15c0.05,0.04 0.73,0.06 -0.7,0.61 -0.44,0.17 -0.99,0.2 -1.5,0.18 -0.87,-0.03 -2.03,-0.19 -2.79,-0.51 0.37,1.85 2.23,11.11 1.02,12.81 -1.79,2.55 -5.65,0.07 -6.66,0.42 0.26,0.4 0.35,0.38 0.97,0.6l2.95 1.35c0.7,0.42 1.14,0.49 1.91,0.99 1.07,0.69 1.88,0.72 1.45,1.31 1.1,0.54 2.82,1.85 3.64,2.6 2.69,2.45 3.31,2.66 6.04,6.02 0.65,0.8 1.85,2.72 2.54,3.28 3.29,-6.86 3.56,-6.78 6.01,-14.45 2.28,-7.16 1.93,-10.88 2.51,-17.62 -5.48,-0.56 -7.67,-0.68 -11.74,-3.24 -1.54,-0.97 -3.02,-2.15 -4.09,-3.31 -0.57,-0.62 -1.19,-1.28 -1.74,-1.97l-1.74 -2.16c1.18,3.95 3.28,8.86 1.92,13.09z"/>
   <path class="fil0" d="M15.86 74.11c-0.78,-0.03 -1.63,0.02 -2.36,-0.22 -0.85,-0.27 -0.87,-0.48 -1.27,-1.04 -3.85,-5.37 -2.27,-14.05 0.42,-19.49 0.56,-1.12 3.18,-4.64 5.2,-4.04 0.22,1.45 -1.28,2.33 -2.68,5.19 -2.14,4.37 -2.41,9.1 -1.64,13.9 0.42,2.63 2.16,4.67 2.33,5.7zm1.01 -29.3c-2,0.53 -2.8,1.36 -3.98,2.55 -3.5,3.51 -5.32,8.14 -6.04,13.41 -0.55,3.97 -0.49,7.92 0.82,11.57 1.16,3.27 3.8,6.27 7.38,5.6 2.98,-0.55 5.47,-3.76 6.81,-6.04 3.3,-5.61 4.54,-15.44 2.17,-21.57 -1.02,-2.65 -3.44,-6.51 -7.16,-5.52z"/>
   <path class="fil3" d="M146.9 58.89c0.02,0.02 0.08,0.02 0.08,0.06 0.13,0.61 -0.03,-0.22 0.35,0.34 0.32,0.45 0.07,0.31 0.48,0.77 2.4,0.33 2.33,-0.86 3.51,-2.02 1.14,-1.12 4.92,-4.01 6.19,-4.7 1.88,-1.02 2.17,-0.76 3.96,-1.35 -0.1,1.55 -2.74,3.66 -3.57,4.64 -0.72,0.86 -1.18,1.48 -1.99,2.29 -0.29,0.3 -1.77,1.79 -1.93,2.22 1.8,0.2 3.2,0.46 4.95,0.97 4.63,1.36 3.3,2.85 8.2,-0.34 0.7,-0.46 0.12,-0.08 0.7,-0.65 0.84,-0.8 1.19,-0.69 2.38,-2.31 0.83,-1.14 1.11,-1.15 2.62,-3.23l2.24 -3.8c1.18,-2.44 0.65,-0.7 1.8,-4.04 0.38,-1.12 1.34,-3.47 1.38,-4.58 -8.33,-2.06 -16.17,0.05 -22.93,4.25 -0.76,0.48 -3.24,2.97 -3.89,3.72 -0.77,0.88 -4.14,6.11 -4.53,7.76z"/>
   <path class="fil0" d="M95.77 53.78c7.62,-1.55 13.1,4.99 13.88,11.39 0.92,7.64 -3.83,14.4 -10.06,15.33 -7.79,1.17 -12.93,-4.84 -13.87,-11.45 -0.59,-4.22 0.69,-7.49 2.41,-10.14 0.77,-1.17 2.14,-2.51 3.16,-3.26 1.29,-0.93 2.59,-1.48 4.48,-1.87zm-0.58 -3.68c-12.34,2.97 -15.91,17.07 -10.86,25.81 1.07,1.85 2.14,3.45 3.59,4.59 7.69,6.04 16.89,4.67 22.16,-2.95 4.55,-6.57 4.08,-15.18 -0.77,-21.55 -2.85,-3.73 -9.08,-7.11 -14.12,-5.9z"/>
   <path class="fil7" d="M16.87 44.81c3.72,-0.99 6.14,2.87 7.16,5.52 2.37,6.13 1.13,15.96 -2.17,21.57 -1.34,2.28 -3.83,5.49 -6.81,6.04 -3.58,0.67 -6.22,-2.33 -7.38,-5.6 -1.31,-3.65 -1.37,-7.6 -0.82,-11.57 0.72,-5.27 2.54,-9.9 6.04,-13.41 1.18,-1.19 1.98,-2.02 3.98,-2.55zm0.43 -4.09c-10.15,1.37 -16.87,21.55 -11.96,34.34 5.43,14.14 20.69,5.67 22.91,-12.88 0.57,-4.77 0.33,-10.35 -1.57,-14.49 -1.68,-3.64 -4.63,-7.61 -9.38,-6.97z"/>
   <path class="fil8" d="M103.54 69.99c-2.19,10.43 -16.49,7.93 -14.02,-4.22 2.23,-10.94 16.41,-7.14 14.02,4.22zm-7.77 -16.21c-1.89,0.39 -3.19,0.94 -4.48,1.87 -1.02,0.75 -2.39,2.09 -3.16,3.26 -1.72,2.65 -3,5.92 -2.41,10.14 0.94,6.61 6.08,12.62 13.87,11.45 6.23,-0.93 10.98,-7.69 10.06,-15.33 -0.78,-6.4 -6.26,-12.94 -13.88,-11.39z"/>
   <path class="fil9" d="M14.38 98.37l-0.03 -1.68 0.52 0.18c0.36,0.14 0.67,0.26 1.01,0.37 0.98,0.33 1.21,0.48 2.29,0.22 1.31,-0.32 2.39,-0.85 3.55,-1.55l3.3 -1.75c1.09,-0.69 2.21,-1.09 3.49,-1.79 6.4,-3.53 9.82,-3.98 16.8,-3.14l0.5 -0.79 0.99 0.24 0.31 -6.68c-3.38,0.68 -5.08,1.03 -8.72,0.55 -1.37,-0.18 -3.19,-0.68 -4.05,0.08 -7.46,6.57 -12.88,2.85 -19.07,3.56 -0.69,2.18 -2.01,10.43 -0.89,12.18z"/>
   <path class="fil10" d="M103.54 69.99c2.39,-11.36 -11.79,-15.16 -14.02,-4.22 -2.47,12.15 11.83,14.65 14.02,4.22z"/>
   <path class="fil11" d="M80.17 84.14c1.08,-0.35 1.38,-1.29 2.4,-1.21 0.2,2.58 -1.15,6.7 -2.14,8.6 -2.87,5.53 -9.78,11.76 -17.09,8.88 -2.17,-0.85 -1.78,-1.32 -3.22,-2.38 0.87,3.45 1.72,6.53 6.59,7.58 3.91,0.84 8.51,-0.78 11.09,-2.69 2.49,-1.86 4.5,-4.47 5.68,-8.54 0.98,-3.44 1.18,-8.31 -0.41,-11.56 -0.02,-0.04 -0.04,-0.09 -0.07,-0.14 -0.02,-0.04 -0.05,-0.09 -0.08,-0.13 -0.16,-0.26 -0.15,-0.24 -0.3,-0.39 -0.53,0.76 -2.25,0.47 -2.45,1.98z"/>
   <path class="fil3" d="M162.83 77.74c1.37,0.2 -0.02,-0.06 1.69,1.53 1.71,1.58 0.64,1.04 1.78,1.72 0.51,0.3 0.13,0.04 0.47,0.31 0.57,0.45 0.61,0.58 1.55,0.99 0.75,0.33 1.81,0.83 2.57,0.97 0.64,-0.12 1.54,-0.36 2.12,-0.57l2.01 -1.01 -2.61 -2.32c-0.53,-0.52 -0.58,-0.74 -1.05,-1.27l-1.15 -1.38c-0.76,-0.96 -1.45,-1.91 -2.12,-2.76l-1.63 -2.06c-0.29,-0.29 -0.44,-0.39 -0.68,-0.68 -1.52,-1.84 -3.33,-3.34 -5.41,-4.56 -2.12,-1.23 -5.23,-1.98 -8.08,-1.97l-0.14 4.09c2.21,1.29 3.47,0.72 6.35,3.86 1.1,1.2 3.55,3.16 4.33,5.11z"/>
   <path class="fil11" d="M31.15 52.35c0.07,3.23 0.47,5.3 0.18,8.77 -0.25,3.05 -0.86,5.28 -1.51,8.09 1.31,-0.2 2.6,0.22 4.09,0.44 0.56,0.09 1.43,0.23 2.03,0.32 0.97,0.14 1.34,0.27 2.05,0.03 1.14,-2.06 2.28,-10.54 1.41,-12.7l-0.03 0.42c-0.16,-1.35 -0.26,-3.66 -0.89,-4.61 -0.52,-0.6 -6.19,-1.52 -7.18,-2.08l-0.15 1.32z"/>
   <path class="fil12" d="M37.99 70c-0.71,0.24 -1.08,0.11 -2.05,-0.03 -0.6,-0.09 -1.47,-0.23 -2.03,-0.32 -1.49,-0.22 -2.78,-0.64 -4.09,-0.44 -0.03,0.04 -1.26,3.33 -1.53,3.87 -1.37,2.79 -2.75,4.7 -4.81,6.87 -0.71,0.75 -2.27,2.1 -3.19,2.61l1.62 0.46c1.77,0.21 3.64,0.31 5.37,-0.05 5.61,-1.17 9.85,-8.56 10.71,-12.97z"/>
   <path class="fil13" d="M170.89 83.26c-0.76,-0.14 -1.82,-0.64 -2.57,-0.97 -0.94,-0.41 -0.98,-0.54 -1.55,-0.99 -0.34,-0.27 0.04,-0.01 -0.47,-0.31 -1.14,-0.68 -0.07,-0.14 -1.78,-1.72 -1.71,-1.59 -0.32,-1.33 -1.69,-1.53 -0.59,0.05 -4.91,-1.71 -5.92,-2.16 -1.32,-0.59 -5.19,-2.79 -5.7,-2.67 -0.31,0.18 -0.99,0.69 -1.31,0.98 -1.12,1.76 1.25,4.64 2.42,5.71 1.44,1.32 2.97,2.5 4.84,3.36 3.23,1.51 10.18,2.12 13.73,0.3z"/>
   <path class="fil14" d="M40.28 138.04c0.36,0.47 0.43,0.39 0.87,0.92l5.07 4.48c2.19,1.7 9.19,6.59 11.44,7.12 -1.55,-2.88 -2.73,-10.05 -2.28,-13.77l-3.7 -1.2c-0.39,1.81 -2.63,3.35 -4.7,3.68 -1.24,0.2 -2.56,0.07 -3.76,-0.24 -0.96,-0.24 -2.37,-0.9 -2.94,-0.99z"/>
   <path class="fil11" d="M41.72 70.51c0.95,-0.37 3.26,0.11 4.34,0.24 1.23,0.14 3.43,0.07 4.25,0.67 1.09,-3.39 1.78,-8.18 0.78,-11.75 -0.8,-0.28 -1.11,-0.32 -2.2,-0.53 -0.67,-0.13 -1.26,-0.25 -1.93,-0.39 -1.13,-0.24 -2.83,-0.87 -3.83,-0.64 0.51,4.31 -0.45,8.41 -1.41,12.4z"/>
   <path class="fil9" d="M61.96 115.53c1.48,1.02 5.88,0.73 7.84,0.22 2.62,-0.68 2.49,-0.76 4.68,-1.93l1.33 -0.82c0.09,-0.06 0.14,-0.09 0.23,-0.15l2.77 -2.48c0.88,-0.77 5,-6.05 4.45,-7.12 -1.3,0.9 -1.63,2.63 -6.97,4.97 -3.57,1.56 -6,1.36 -9.99,1.28 -0.52,0.19 -4.01,5.47 -4.34,6.03z"/>
   <path class="fil15" d="M15.86 74.11c-0.17,-1.03 -1.91,-3.07 -2.33,-5.7 -0.77,-4.8 -0.5,-9.53 1.64,-13.9 1.4,-2.86 2.9,-3.74 2.68,-5.19 -2.02,-0.6 -4.64,2.92 -5.2,4.04 -2.69,5.44 -4.27,14.12 -0.42,19.49 0.4,0.56 0.42,0.77 1.27,1.04 0.73,0.24 1.58,0.19 2.36,0.22z"/>
   <path class="fil6" d="M61.57 107.37c-0.27,-0.3 -1.09,-0.72 -2.37,-2.03 -2.18,-2.22 -0.73,-2.66 -2.62,-3.05 -2.53,-0.53 -4.58,-2.57 -6.09,-4.6 -0.66,-0.88 -0.99,-1.73 -1.53,-2.6 -0.8,1.25 -0.86,8.01 3.01,11.25 1.4,1.18 2.75,2.08 4.67,2.71 3.03,1.01 3.87,0.57 4.93,-1.68z"/>
   <path class="fil12" d="M50.31 71.42c-0.82,-0.6 -3.02,-0.53 -4.25,-0.67 -1.08,-0.13 -3.39,-0.61 -4.34,-0.24 -0.8,1.49 -1.06,3.41 -2.83,6.36 -0.41,0.67 -0.83,1.32 -1.15,1.89 1.04,0.68 3.27,0.55 4.61,0.56 4.72,0.07 6.28,-4.35 7.96,-7.9z"/>
   <path class="fil11" d="M54.18 70.63c-0.28,0.86 -0.2,0.16 0.61,0.32 0.24,0.05 0.91,0.07 1.1,0.08 0.64,0.05 1.33,0.18 2.01,0.31 1.21,0.21 2.71,0.63 3.85,0.41 0.78,-1.21 1.12,-5.18 0.67,-6.71 -0.39,0.55 0.35,0.39 -1.72,0l-5.66 -1.08c-0.08,2.72 -0.44,4.14 -0.86,6.67z"/>
   <path class="fil12" d="M61.75 71.75c-1.14,0.22 -2.64,-0.2 -3.85,-0.41 -0.68,-0.13 -1.37,-0.26 -2.01,-0.31 -0.19,-0.01 -0.86,-0.03 -1.1,-0.08 -0.81,-0.16 -0.89,0.54 -0.61,-0.32 -0.38,0.85 -0.63,1.98 -1.05,2.95 -0.43,0.97 -1,1.83 -1.25,2.81 1.58,-0.02 5.85,0.62 7,0.01 1.01,-0.53 2.55,-2.94 2.87,-4.65z"/>
   <path class="fil16" d="M30.04 47.79c1.24,0.77 5.43,1.37 7.1,1.79 -0.11,-0.4 -0.18,-0.44 -0.22,-0.63l-0.01 -0.46c-2.73,-3.68 -5.04,-4.88 -9.76,-6.09 0.25,0.71 1.07,1.82 1.56,2.67 0.36,0.65 0.86,2.3 1.33,2.72z"/>
   <path class="fil17" d="M142.77 64.45c-1.17,5.14 4.09,4.32 5.63,2.68 0.04,-0.03 0.08,-0.09 0.11,-0.12 0.03,-0.03 0.07,-0.08 0.1,-0.13 0.21,-1.97 -1.71,-4.23 -4.31,-3.8 -0.34,0.05 -0.71,0.15 -1,0.33 -0.6,0.37 -0.48,0.15 -0.53,1.04z"/>
   <path class="fil18" d="M31.15 52.35l0.15 -1.32c0.99,0.56 6.66,1.48 7.18,2.08 0.63,0.95 0.73,3.26 0.89,4.61l0.03 -0.42c0.23,-1.41 -0.37,-3.5 -0.74,-4.84 -0.48,-1.73 -1.18,-2.66 -1.75,-3.97l0.01 0.46c0.04,0.19 0.11,0.23 0.22,0.63 -1.67,-0.42 -5.86,-1.02 -7.1,-1.79l1.11 4.56z"/>
   <path class="fil13" d="M148.61 66.88c-0.03,0.05 -0.07,0.1 -0.1,0.13 -0.03,0.03 -0.07,0.09 -0.11,0.12 -1.54,1.64 -6.8,2.46 -5.63,-2.68 -0.5,0.43 -0.37,0.79 -0.38,2.03 -0.01,0.79 -0.15,1.55 -0.18,2.35 -0.05,1.61 0.19,3.16 1.61,3.52 2.63,0.66 4.7,-2.57 4.79,-5.47z"/>
   <path class="fil9" d="M66.83 97.34c1.09,0.38 5.91,-0.93 6.61,-4 -7.43,0 -6.92,-1.13 -7.14,1.38 -0.09,1.12 -0.13,2.09 0.53,2.62z"/>
   <path class="fil16" d="M42.85 55.1c0.49,0.3 0.89,0.39 1.71,0.56 0.69,0.15 1.3,0.28 1.95,0.41 1.27,0.25 2.51,0.79 3.67,0.76 -1.28,-3.02 -3.88,-4.2 -7.95,-4.86l0.62 3.13z"/>
   <path class="fil18" d="M43.13 58.11c1,-0.23 2.7,0.4 3.83,0.64 0.67,0.14 1.26,0.26 1.93,0.39 1.09,0.21 1.4,0.25 2.2,0.53 -0.13,-0.81 -0.48,-2.38 -0.91,-2.84 -1.16,0.03 -2.4,-0.51 -3.67,-0.76 -0.65,-0.13 -1.26,-0.26 -1.95,-0.41 -0.82,-0.17 -1.22,-0.26 -1.71,-0.56l0.28 3.01z"/>
   <path class="fil16" d="M54.97 61.3c0.25,-0.64 0.04,-0.04 0.18,0.32 0.34,0.89 -0.62,0.42 2.5,1.01 1.44,0.28 2.74,0.44 4.11,0.89l-0.06 -0.8c-0.39,-1.38 -1.66,-2.16 -2.91,-2.76 -1.02,-0.49 -3.11,-1.34 -4.28,-1.21l0.46 2.55z"/>
   <path class="fil18" d="M55.04 63.96l5.66 1.08c2.07,0.39 1.33,0.55 1.72,0l-0.72 -2.32 0.06 0.8c-1.37,-0.45 -2.67,-0.61 -4.11,-0.89 -3.12,-0.59 -2.16,-0.12 -2.5,-1.01 -0.14,-0.36 0.07,-0.96 -0.18,-0.32l0.07 2.66z"/>
   <path class="fil19" d="M73.55 71.67c-2.45,0.57 -3.08,4.25 -0.48,3.8 0.77,-0.13 1.79,-1.17 1.98,-1.83 0.34,-1.18 -0.36,-2.23 -1.5,-1.97z"/>
   <path class="fil20" d="M143.84 108.91c0.43,-0.59 -0.38,-0.62 -1.45,-1.31 -0.77,-0.5 -1.21,-0.57 -1.91,-0.99l-2.95 -1.35c-0.62,-0.22 -0.71,-0.2 -0.97,-0.6 1.01,-0.35 4.87,2.13 6.66,-0.42 1.21,-1.7 -0.65,-10.96 -1.02,-12.81 0.76,0.32 1.92,0.48 2.79,0.51 0.51,0.02 1.06,-0.01 1.5,-0.18 1.43,-0.55 0.75,-0.57 0.7,-0.61 -1.83,0.93 -3.44,0.46 -5.4,-0.25 0.61,3.38 1.36,6.65 1.46,10.25 0.07,2.2 0.29,3.67 -1.98,3.9 -1.86,0.18 -3.45,-0.5 -4.92,-0.96l-0.15 1c1.31,0.33 6.3,2.63 7.39,3.5 0.27,0.22 0.18,0.11 0.25,0.32z"/>
  </g>
 </g>
</svg>
