<?xml version="1.0" encoding="UTF-8"?>
<!DOCTYPE svg PUBLIC "-//W3C//DTD SVG 1.1//EN" "http://www.w3.org/Graphics/SVG/1.1/DTD/svg11.dtd">
<!-- Creator: CorelDRAW 2020 (64 Bit) -->
<svg xmlns="http://www.w3.org/2000/svg" xml:space="preserve" width="512px" height="512px" version="1.1" style="shape-rendering:geometricPrecision; text-rendering:geometricPrecision; image-rendering:optimizeQuality; fill-rule:evenodd; clip-rule:evenodd"
viewBox="0 0 511.64 511.64"
 xmlns:xlink="http://www.w3.org/1999/xlink"
 xmlns:xodm="http://www.corel.com/coreldraw/odm/2003">
 <defs>
  <style type="text/css">
   <![CDATA[
    .fil1 {fill:#003A5E}
    .fil5 {fill:#28A9BE}
    .fil0 {fill:#F3635E}
    .fil4 {fill:#FC3D38}
    .fil3 {fill:#FDF9F1}
    .fil2 {fill:#FE796C}
   ]]>
  </style>
 </defs>
 <g id="Camada_x0020_1">
  <metadata id="CorelCorpID_0Corel-Layer"/>
  <g id="_2025250506816">
   <rect class="fil0" width="511.64" height="511.64"/>
   <g>
    <path class="fil1" d="M179.17 405.26c6.91,-3.7 10.6,0.39 32.5,-16.59 12.86,-9.97 15.16,-12.57 26.73,-22.52 23.41,-20.14 51.39,-25.65 83.92,-39.27 14.23,-5.96 34.85,-18.16 45.38,-28.49 8.35,-8.2 15.64,-15.21 22.9,-26.4 4.95,-7.64 9.25,-15.53 12.83,-24.1l3.81 -9.48c-0.09,14.66 -3.61,29.47 -8.86,40.72 -2.88,6.16 -5,10.49 -8.61,16.02 -10.24,15.71 -21.79,26.76 -37.72,36.84 -27.69,17.54 -44.71,18.55 -71.91,27.25 -12.67,4.05 -22.97,10.33 -33.43,16.5 -10.01,5.91 -19.95,13.43 -29.38,19.91 -8.82,6.05 -20.53,14.54 -32.75,17.39 -9.08,3.9 -28.25,4.73 -39.2,3.25 -12.59,-1.69 -22.57,-8.46 -30.4,-14.36 -1.74,-1.31 -4.52,-4.29 -6.23,-4.85 -6.19,-2.04 -13.32,5.29 0.76,16.82 8.37,6.84 16.11,12.62 26.31,18.42 37.16,21.1 85.47,39.54 140.01,37.37 53.98,-2.15 98.97,-21.8 130.97,-46.65 13.54,-10.52 24.09,-18.57 33.87,-32.24 1.2,-1.68 3.66,-4.89 3.99,-7.09 0.55,-3.71 -1.85,-6.2 -5.64,-5.82 -3.11,0.32 -5.03,3.09 -6.59,4.66 -2.13,2.14 -3.67,3.26 -6.19,4.81 -14.06,8.62 -38.12,12.76 -52.54,7.4 -0.21,-0.08 -0.81,-0.33 -1,-0.43 -1.15,-0.59 -0.65,-0.3 -1.39,-0.95 10.13,-2.16 31.42,-26.79 37.11,-36.13 9.48,-15.58 15.94,-33.36 16.81,-56.32 1.48,-39.05 -24.4,-102.84 14.28,-118.77 2.67,-1.1 4.53,-1.52 5.48,-3.63 1.18,-2.64 0.21,-5.19 -1.92,-6.15 -3.91,-1.78 -10.65,1.74 -13.86,3.35 -26.57,13.27 -24.79,38.83 -41.5,69.39 -15.73,28.76 -44.04,54.54 -80.29,66.73l24.91 -34.59c3.98,-5.75 7.98,-11.84 12.04,-17.81 11.5,-16.88 23.6,-39.11 30.64,-58.8 6.19,-17.32 9.09,-31.25 6.75,-51.89 -7.45,-65.7 -67.1,-113.51 -131.98,-106.26 -47.45,5.31 -85.02,33.84 -101.91,77.53 -5.72,14.78 -8.7,33.84 -7.16,51.93 3.39,39.85 38.12,89.11 60.36,119.24l18.85 25.9c1.61,2.14 5.81,7.49 6.42,9.21 -27.72,3.22 -29.66,-9.79 -39.73,-17.4 -6.25,-4.73 -14.01,-4.41 -23.14,-5.39 -8.38,-0.9 -16.85,-1.99 -24.69,-3.82 -22.42,-5.24 -42.77,-13.13 -62.03,-23.52 -2.78,-1.5 -7.53,-3.16 -9.79,0.85 -2.63,4.68 1.67,6.88 4.17,8.63 9.26,6.48 16.55,21.65 21.92,35.12 10.67,26.79 33.79,70.34 60.62,82.04 10.26,4.47 14.49,2.82 25.5,2.44z"/>
    <path class="fil2" d="M253.25 101.49c-28.43,4.49 -52.17,29.78 -47.65,63.97 3.74,28.35 29.88,53.5 63.49,48.63 27.82,-4.04 52.75,-30.34 48.36,-63.82 -4.17,-31.8 -34.15,-53.52 -64.2,-48.78z"/>
    <path class="fil3" d="M171.18 427.59c9.86,3.94 35,-3.97 42.94,-7.95 37.84,-18.93 61.9,-53.02 114.45,-40.74 14.26,3.33 24.91,9.26 29.28,10.34 4.75,1.17 20.56,-13.06 23.4,-15.75 12.71,-12.01 24.79,-31.59 29.37,-50.32 2.74,-11.22 5.18,-38.35 1.78,-49.24 -1.15,1.87 -2.29,6.48 -3.25,8.81 -7.46,18.15 -21.92,37.44 -37.68,48.58 -25.06,17.7 -36.55,22.23 -66.2,32.37 -13.24,4.54 -24.75,6.44 -36.66,12.62 -21.76,11.29 -28.24,18.27 -44.56,29.28 -16.94,11.43 -30.38,19.54 -52.87,22z"/>
    <path class="fil4" d="M179.17 405.26c14.56,-0.35 17.95,-3.88 24.15,-4.8l-0.74 0.9c-0.75,0.76 -0.15,0.21 -1.14,1.09l-6.72 4.97c-2.25,1.44 -9.27,4.61 -10.14,5.62 12.22,-2.85 23.93,-11.34 32.75,-17.39 9.43,-6.48 19.37,-14 29.38,-19.91 10.46,-6.17 20.76,-12.45 33.43,-16.5 27.2,-8.7 44.22,-9.71 71.91,-27.25 15.93,-10.08 27.48,-21.13 37.72,-36.84 3.61,-5.53 5.73,-9.86 8.61,-16.02 5.25,-11.25 8.77,-26.06 8.86,-40.72l-3.81 9.48c-3.58,8.57 -7.88,16.46 -12.83,24.1 -7.26,11.19 -14.55,18.2 -22.9,26.4 -10.53,10.33 -31.15,22.53 -45.38,28.49 -32.53,13.62 -60.51,19.13 -83.92,39.27 -11.57,9.95 -13.87,12.55 -26.73,22.52 -21.9,16.98 -25.59,12.89 -32.5,16.59z"/>
    <path class="fil5" d="M186.25 439.01c4.16,2.63 21.62,4.47 28.44,4.01 11.23,-0.77 17.62,-2 27.51,-5.64 3.84,-1.41 7.53,-3.01 11.48,-4.76l15.69 -8.94c10.65,-7.39 32.47,-12.71 45.8,-12.54 19.78,0.24 34.53,8.2 59.32,6.54 5.8,-0.39 21.29,-5.35 24.58,-8.91 -27.59,0.62 -32.91,-2.82 -57.71,-12.15 -20.8,-7.83 -38.04,-9.03 -59.12,-1.55 -13.32,4.73 -18.16,7.69 -28.9,14.51l-10.44 7.08c-6.98,5.08 -19.66,12.41 -28.32,15.75 -11.3,4.37 -16.76,4.45 -28.33,6.6z"/>
    <path class="fil3" d="M236.99 352.18c-22.37,6.67 -37.61,8.71 -62.81,6.17 -19.64,-1.98 -41.13,-6.52 -57.44,-13.29 4.57,9.94 17.09,26.99 24.74,34.89 8.48,8.76 17.04,15.99 31.45,14.62 19.91,-1.9 33.75,-17.44 45.79,-26.73l18.27 -15.66z"/>
    <path class="fil5" d="M224.38 455.55c7.58,2.67 31.64,3.97 41.52,3.91 28.83,-0.19 51.28,-4.71 77.6,-13.51 5.25,-1.75 11.13,-3.78 16.35,-6.35 4.53,-2.22 11.46,-6.01 15.49,-7.21 -1.93,-1.29 -2.17,-1.07 -5.06,-0.95 -2,0.09 -3.85,-0.01 -5.82,0.03 -22.96,0.53 -39.53,-14.62 -80.09,1.38 -21.91,8.64 -24.82,18.4 -59.99,22.7z"/>
    <path class="fil4" d="M101.44 311.57c0.21,2.75 3.92,10.35 5.18,13.17 3.43,7.62 2.88,5.94 10.34,9.11 17.6,7.47 44.35,11.92 64.07,13.6 6.5,0.56 33.36,1.35 36.92,-1.79 1.76,-1.56 5.05,-8.16 -5.69,-9.28 -5.69,-0.6 -11.58,-1.18 -17.45,-1.96 -32.93,-4.33 -63.43,-9.56 -93.37,-22.85z"/>
   </g>
  </g>
 </g>
</svg>
