<?xml version="1.0" encoding="UTF-8"?>
<!DOCTYPE svg PUBLIC "-//W3C//DTD SVG 1.1//EN" "http://www.w3.org/Graphics/SVG/1.1/DTD/svg11.dtd">
<!-- Creator: CorelDRAW 2020 (64 Bit) -->
<svg xmlns="http://www.w3.org/2000/svg" xml:space="preserve" width="192px" height="192px" version="1.1" style="shape-rendering:geometricPrecision; text-rendering:geometricPrecision; image-rendering:optimizeQuality; fill-rule:evenodd; clip-rule:evenodd"
viewBox="0 0 191.86 191.86"
 xmlns:xlink="http://www.w3.org/1999/xlink"
 xmlns:xodm="http://www.corel.com/coreldraw/odm/2003">
 <defs>
  <style type="text/css">
   <![CDATA[
    .fil1 {fill:#003A5E}
    .fil5 {fill:#28A9BE}
    .fil0 {fill:#F3635E}
    .fil4 {fill:#FC3D38}
    .fil3 {fill:#FDF9F1}
    .fil2 {fill:#FE796C}
   ]]>
  </style>
 </defs>
 <g id="Camada_x0020_1">
  <metadata id="CorelCorpID_0Corel-Layer"/>
  <g id="_2060683676784">
   <rect class="fil0" width="191.86" height="191.86"/>
   <g>
    <path class="fil1" d="M67.19 151.97c2.59,-1.39 3.98,0.15 12.19,-6.22 4.82,-3.74 5.68,-4.71 10.02,-8.44 8.78,-7.56 19.27,-9.62 31.47,-14.73 5.34,-2.24 13.07,-6.81 17.02,-10.69 3.13,-3.07 5.86,-5.7 8.58,-9.9 1.86,-2.86 3.47,-5.82 4.82,-9.03l1.43 -3.55c-0.04,5.49 -1.36,11.05 -3.33,15.26 -1.08,2.31 -1.87,3.94 -3.23,6.01 -3.84,5.89 -8.17,10.03 -14.14,13.82 -10.39,6.57 -16.77,6.95 -26.97,10.22 -4.75,1.52 -8.61,3.87 -12.53,6.18 -3.76,2.22 -7.48,5.04 -11.02,7.47 -3.31,2.27 -7.7,5.45 -12.28,6.52 -3.41,1.46 -10.6,1.77 -14.7,1.22 -4.72,-0.64 -8.47,-3.18 -11.4,-5.39 -0.65,-0.49 -1.7,-1.6 -2.34,-1.81 -2.32,-0.77 -4.99,1.98 0.29,6.3 3.14,2.57 6.04,4.74 9.86,6.91 13.94,7.91 32.05,14.83 52.51,14.01 20.24,-0.8 37.11,-8.17 49.11,-17.49 5.08,-3.95 9.03,-6.96 12.7,-12.09 0.45,-0.63 1.37,-1.83 1.5,-2.66 0.2,-1.39 -0.7,-2.32 -2.12,-2.18 -1.16,0.12 -1.88,1.16 -2.47,1.74 -0.8,0.81 -1.37,1.23 -2.32,1.81 -5.27,3.23 -14.29,4.78 -19.7,2.77 -0.08,-0.02 -0.31,-0.12 -0.38,-0.16 -0.43,-0.22 -0.24,-0.11 -0.52,-0.35 3.8,-0.81 11.78,-10.05 13.92,-13.55 3.55,-5.85 5.98,-12.51 6.3,-21.12 0.56,-14.65 -9.15,-38.57 5.36,-44.54 1,-0.41 1.7,-0.57 2.05,-1.36 0.44,-0.99 0.08,-1.95 -0.72,-2.31 -1.47,-0.66 -3.99,0.66 -5.2,1.26 -9.96,4.97 -9.29,14.56 -15.56,26.02 -5.9,10.79 -16.51,20.45 -30.11,25.02l9.34 -12.97c1.5,-2.15 3,-4.44 4.52,-6.68 4.31,-6.33 8.85,-14.66 11.49,-22.05 2.32,-6.49 3.41,-11.71 2.53,-19.45 -2.79,-24.64 -25.16,-42.57 -49.49,-39.85 -17.8,1.99 -31.88,12.69 -38.22,29.07 -2.14,5.54 -3.26,12.69 -2.69,19.47 1.28,14.95 14.3,33.42 22.64,44.72l7.07 9.71c0.6,0.81 2.18,2.81 2.41,3.46 -10.4,1.21 -11.13,-3.68 -14.9,-6.53 -2.34,-1.77 -5.26,-1.65 -8.68,-2.02 -3.14,-0.34 -6.32,-0.75 -9.26,-1.43 -8.4,-1.97 -16.03,-4.93 -23.26,-8.82 -1.04,-0.57 -2.82,-1.19 -3.67,0.32 -0.98,1.75 0.63,2.58 1.56,3.23 3.48,2.43 6.21,8.12 8.22,13.17 4.01,10.05 12.67,26.38 22.74,30.77 3.84,1.67 5.43,1.05 9.56,0.91z"/>
    <path class="fil2" d="M94.97 38.06c-10.66,1.68 -19.57,11.17 -17.87,23.99 1.4,10.63 11.2,20.06 23.81,18.23 10.43,-1.51 19.78,-11.37 18.13,-23.93 -1.56,-11.92 -12.8,-20.07 -24.07,-18.29z"/>
    <path class="fil3" d="M64.19 160.35c3.7,1.47 13.13,-1.49 16.11,-2.98 14.18,-7.1 23.21,-19.89 42.91,-15.28 5.35,1.25 9.34,3.47 10.99,3.88 1.77,0.43 7.71,-4.9 8.77,-5.91 4.76,-4.51 9.3,-11.85 11.01,-18.87 1.03,-4.21 1.94,-14.38 0.67,-18.47 -0.43,0.71 -0.86,2.43 -1.22,3.31 -2.8,6.8 -8.22,14.04 -14.13,18.21 -9.4,6.64 -13.71,8.34 -24.82,12.15 -4.97,1.69 -9.28,2.41 -13.75,4.73 -8.16,4.23 -10.59,6.85 -16.71,10.98 -6.35,4.28 -11.39,7.32 -19.83,8.25z"/>
    <path class="fil4" d="M67.19 151.97c5.46,-0.13 6.73,-1.45 9.06,-1.8l-0.28 0.34c-0.28,0.29 -0.06,0.08 -0.43,0.41l-2.52 1.86c-0.84,0.54 -3.48,1.73 -3.8,2.11 4.58,-1.07 8.97,-4.25 12.28,-6.52 3.54,-2.43 7.26,-5.25 11.02,-7.47 3.92,-2.31 7.78,-4.66 12.53,-6.18 10.2,-3.27 16.58,-3.65 26.97,-10.22 5.97,-3.79 10.3,-7.93 14.14,-13.82 1.36,-2.07 2.15,-3.7 3.23,-6.01 1.97,-4.21 3.29,-9.77 3.33,-15.26l-1.43 3.55c-1.35,3.21 -2.96,6.17 -4.82,9.03 -2.72,4.2 -5.45,6.83 -8.58,9.9 -3.95,3.88 -11.68,8.45 -17.02,10.69 -12.2,5.11 -22.69,7.17 -31.47,14.73 -4.34,3.73 -5.2,4.7 -10.02,8.44 -8.21,6.37 -9.6,4.83 -12.19,6.22z"/>
    <path class="fil5" d="M69.84 164.63c1.56,0.99 8.11,1.68 10.67,1.5 4.21,-0.29 6.61,-0.75 10.32,-2.11 1.44,-0.53 2.82,-1.13 4.3,-1.79l5.88 -3.35c4,-2.77 12.18,-4.77 17.18,-4.7 7.41,0.09 12.95,3.07 22.24,2.45 2.18,-0.15 7.99,-2 9.22,-3.34 -10.35,0.23 -12.34,-1.06 -21.64,-4.56 -7.8,-2.93 -14.26,-3.39 -22.17,-0.58 -5,1.77 -6.81,2.89 -10.84,5.44l-3.91 2.66c-2.62,1.9 -7.37,4.65 -10.62,5.91 -4.24,1.63 -6.29,1.66 -10.63,2.47z"/>
    <path class="fil3" d="M88.87 132.07c-8.39,2.5 -14.1,3.26 -23.55,2.31 -7.37,-0.74 -15.43,-2.44 -21.54,-4.98 1.71,3.72 6.41,10.12 9.27,13.08 3.19,3.29 6.39,6 11.8,5.48 7.47,-0.71 12.65,-6.54 17.17,-10.02l6.85 -5.87z"/>
    <path class="fil5" d="M84.14 170.83c2.85,1 11.87,1.49 15.57,1.47 10.81,-0.07 19.23,-1.77 29.1,-5.07 1.97,-0.66 4.18,-1.41 6.14,-2.38 1.69,-0.83 4.29,-2.25 5.8,-2.7 -0.72,-0.49 -0.81,-0.41 -1.89,-0.36 -0.76,0.03 -1.45,0 -2.19,0.01 -8.61,0.2 -14.82,-5.48 -30.03,0.52 -8.22,3.24 -9.31,6.9 -22.5,8.51z"/>
    <path class="fil4" d="M38.04 116.84c0.08,1.03 1.47,3.88 1.94,4.94 1.29,2.86 1.08,2.23 3.88,3.41 6.6,2.8 16.63,4.48 24.03,5.1 2.44,0.21 12.51,0.51 13.84,-0.67 0.66,-0.58 1.89,-3.06 -2.13,-3.48 -2.14,-0.22 -4.35,-0.44 -6.55,-0.73 -12.35,-1.63 -23.78,-3.59 -35.01,-8.57z"/>
   </g>
  </g>
 </g>
</svg>
