<svg width="198" height="81" viewBox="0 0 198 81" fill="none" xmlns="http://www.w3.org/2000/svg">
<path d="M10.2324 66.4619C8.86088 66.4619 7.56879 66.3291 6.35494 66.0707C5.14938 65.8123 4.01614 65.4282 2.95521 64.9114C1.90257 64.3874 0.91513 63.745 0 62.9697L2.46564 59.941C3.53961 60.868 4.72501 61.5709 6.0171 62.0344C7.31037 62.4991 8.71507 62.7303 10.2324 62.7303C12.2736 62.7303 13.8573 62.3533 14.9835 61.5911C16.1108 60.8218 16.6739 59.7549 16.6739 58.3834V58.3632C16.6739 57.2893 16.3894 56.4678 15.8192 55.8976C15.249 55.3286 14.5069 54.9042 13.5788 54.6257C12.6518 54.3471 11.6442 54.1219 10.537 53.9369C9.47729 53.7579 8.41042 53.5458 7.32934 53.3004C6.24944 53.055 5.25489 52.6638 4.34805 52.1399C3.44004 51.6171 2.71101 50.8608 2.16099 49.8805C1.61096 48.9002 1.33832 47.5808 1.33832 45.9379V45.9177C1.33832 43.2932 2.21314 41.2591 3.95687 39.8141C5.70652 38.3691 8.17097 37.6472 11.3585 37.6472C12.8699 37.6472 14.354 37.8925 15.799 38.3762C17.25 38.8598 18.6618 39.6019 20.0345 40.6024L17.781 43.7437C16.7071 42.9423 15.6402 42.3449 14.5662 41.9608C13.4994 41.5697 12.4325 41.3776 11.3585 41.3776C9.43106 41.3776 7.9256 41.7617 6.85873 42.531C5.79187 43.3003 5.262 44.3933 5.262 45.8051V45.8252C5.262 46.885 5.56665 47.6934 6.19017 48.2506C6.8125 48.8065 7.62806 49.2179 8.62854 49.4834C9.62902 49.7477 10.7101 50.0002 11.8623 50.2314C12.896 50.4376 13.9308 50.6889 14.9645 50.9806C16.0041 51.265 16.9453 51.6894 17.7941 52.2394C18.6428 52.7895 19.3185 53.5458 19.8282 54.5C20.3391 55.4602 20.5975 56.706 20.5975 58.2506V58.2909C20.5975 60.8881 19.6895 62.9033 17.8806 64.3282C16.0646 65.753 13.5195 66.4619 10.2324 66.4619Z" fill="#801D00"/>
<path d="M49.9161 66.1703V53.956C49.9161 52.5311 49.545 51.431 48.816 50.6558C48.087 49.8805 47.0462 49.4894 45.7008 49.4894C44.468 49.4894 43.5208 49.8675 42.8452 50.6167C42.1754 51.3718 41.8376 52.4315 41.8376 53.8042L41.0422 49.9208C41.6847 48.5754 42.5263 47.5346 43.5671 46.8127C44.6007 46.0896 45.747 45.7257 47 45.7257C49.1871 45.7257 50.8834 46.4405 52.0759 47.8725C53.2755 49.3044 53.8718 51.3255 53.8718 53.937V66.1703H49.9161ZM25.8394 66.1703V46.0173H29.7963V66.1703H25.8394ZM37.8748 66.1703V53.956C37.8748 52.5311 37.5227 51.431 36.8269 50.6558C36.1251 49.8805 35.1377 49.4894 33.8586 49.4894C32.5594 49.4894 31.5649 49.8343 30.856 50.523C30.1531 51.2058 29.7963 52.1731 29.7963 53.413L29.392 49.5297C30.0144 48.317 30.8228 47.3758 31.8304 46.7131C32.8309 46.0564 33.938 45.7257 35.1566 45.7257C37.2773 45.7257 38.9215 46.4405 40.0879 47.8725C41.2543 49.3044 41.8376 51.3255 41.8376 53.937V66.1703H37.8748Z" fill="#801D00"/>
<path d="M71.2746 66.1703V53.3929C71.2746 52.0747 70.9178 51.047 70.2149 50.318C69.506 49.5889 68.5115 49.2179 67.2123 49.2179C66.424 49.2179 65.6416 49.3376 64.8735 49.5818C64.1042 49.8213 63.4154 50.165 62.8061 50.6167L59.9161 48.6347C60.6783 47.7196 61.6859 47.0048 62.9318 46.4938C64.1836 45.9841 65.5693 45.7257 67.0997 45.7257C69.6246 45.7257 71.5734 46.3812 72.9591 47.6864C74.3436 48.9927 75.0395 50.8419 75.0395 53.221V66.1703H71.2746ZM66.3374 66.4619C63.8659 66.4619 62.0167 65.951 60.7779 64.9245C59.5451 63.9038 58.9228 62.3391 58.9228 60.2327C58.9228 58.2246 59.4918 56.7262 60.625 55.7329C61.7582 54.7454 63.4545 54.2476 65.7222 54.2476H71.4477L71.7192 57.4351H65.7412C64.7146 57.4351 63.9453 57.6603 63.4285 58.125C62.9116 58.5826 62.6532 59.2843 62.6532 60.2327C62.6532 61.2533 62.9982 62.0084 63.681 62.4991C64.3697 62.9958 65.3974 63.2412 66.7689 63.2412C68.2661 63.2412 69.3934 63.0752 70.1485 62.7504C70.8977 62.4328 71.2746 61.9218 71.2746 61.2391L71.6801 64.0757C71.328 64.6198 70.8977 65.0632 70.3808 65.4152C69.864 65.759 69.2678 66.0245 68.6039 66.1964C67.9354 66.3754 67.1791 66.4619 66.3374 66.4619Z" fill="#801D00"/>
<path d="M81.0566 66.1703V46.0173H85.0135V66.1703H81.0566ZM92.1436 50.7957C91.7928 50.3642 91.3494 50.0394 90.8184 49.8213C90.2885 49.602 89.6792 49.4894 88.9762 49.4894C87.7245 49.4894 86.7501 49.8402 86.0542 50.5301C85.3643 51.226 85.0135 52.1873 85.0135 53.413L84.6092 49.5297C85.2185 48.3431 86.0139 47.409 87.0085 46.7321C87.9959 46.0635 89.0889 45.7257 90.2755 45.7257C91.1965 45.7257 92.031 45.8585 92.7743 46.1228C93.5163 46.3883 94.1659 46.7795 94.7219 47.2964L92.1436 50.7957Z" fill="#801D00"/>
<path d="M103.271 66.2699C101.614 66.2699 100.415 65.8052 99.6662 64.8912C98.9241 63.9702 98.5531 62.6508 98.5531 60.9284V40.1519H102.516V60.9676C102.516 61.4453 102.608 61.8222 102.8 62.0949C103 62.3663 103.284 62.4991 103.655 62.4991H105.558V66.2699H103.271ZM96.4715 49.5889V46.0173H105.558V49.5889H96.4715Z" fill="#801D00"/>
<path d="M131.305 66.4619C129.336 66.4619 127.613 66.0245 126.141 65.1497C124.664 64.2748 123.518 63.0491 122.702 61.4714C121.887 59.8936 121.476 58.0455 121.476 55.9379V48.1901C121.476 46.0694 121.887 44.2214 122.702 42.6365C123.518 41.0599 124.664 39.8342 126.141 38.9594C127.613 38.0846 129.336 37.6472 131.305 37.6472C132.934 37.6472 134.426 37.998 135.777 38.6939C137.13 39.3968 138.263 40.37 139.177 41.6301C140.092 42.8819 140.708 44.353 141.033 46.0362H136.971C136.725 45.1294 136.314 44.3399 135.738 43.6571C135.161 42.9755 134.485 42.4516 133.71 42.0734C132.934 41.7024 132.132 41.5104 131.305 41.5104C129.568 41.5104 128.176 42.1268 127.122 43.3466C126.062 44.5723 125.539 46.182 125.539 48.1901V55.9379C125.539 57.946 126.062 59.5557 127.122 60.7755C128.176 61.9882 129.568 62.5975 131.305 62.5975C132.53 62.5975 133.69 62.2075 134.777 61.4322C135.864 60.6558 136.6 59.5368 136.971 58.0716H141.033C140.708 59.7549 140.085 61.226 139.164 62.4789C138.249 63.7378 137.115 64.7122 135.771 65.4152C134.426 66.111 132.934 66.4619 131.305 66.4619Z" fill="#801D00"/>
<path d="M154.001 66.4619C151.358 66.4619 149.317 65.6926 147.866 64.1623C146.414 62.6248 145.692 60.4709 145.692 57.6876V54.4064C145.692 51.6503 146.414 49.5095 147.866 47.9981C149.317 46.4808 151.358 45.7257 154.001 45.7257C156.64 45.7257 158.687 46.4808 160.138 47.9981C161.583 49.5095 162.312 51.6503 162.312 54.4064V57.7469C162.312 60.51 161.583 62.658 160.138 64.1824C158.687 65.6997 156.64 66.4619 154.001 66.4619ZM154.001 62.6971C155.387 62.6971 156.454 62.2597 157.216 61.392C157.971 60.5243 158.349 59.3116 158.349 57.7469V54.4064C158.349 52.8357 157.971 51.6302 157.216 50.7755C156.454 49.9208 155.387 49.4894 154.001 49.4894C152.63 49.4894 151.563 49.9208 150.795 50.7755C150.033 51.6302 149.655 52.8357 149.655 54.4064V57.7469C149.655 59.3116 150.033 60.5243 150.795 61.392C151.563 62.2597 152.63 62.6971 154.001 62.6971Z" fill="#801D00"/>
<path d="M171.014 66.1703V62.4055H177.402C179.483 62.4055 181.101 61.8626 182.24 60.7827C183.386 59.7016 183.964 58.1783 183.964 56.2094V47.8985C183.964 45.9308 183.386 44.4063 182.24 43.3264C181.101 42.2465 179.483 41.7095 177.402 41.7095H171.014V37.9388H177.283C180.703 37.9388 183.34 38.8266 185.215 40.5893C187.085 42.3591 188.019 44.8437 188.019 48.0586V56.0576C188.019 58.1914 187.602 60.0133 186.76 61.5176C185.918 63.029 184.693 64.1824 183.089 64.9778C181.485 65.772 179.543 66.1703 177.264 66.1703H171.014ZM168.329 66.1703V37.9388H172.293V66.1703H168.329Z" fill="#801D00"/>
<path d="M194.043 41.9016V37.9388H198V41.9016H194.043ZM194.043 66.1703V46.0173H198V66.1703H194.043Z" fill="#801D00"/>
<path d="M3.76246 80.9119L1.46278 74.0935H2.20366L4.35635 80.5125H3.9865L6.20676 74.0935H6.8694L9.06121 80.5125H8.71033L10.8832 74.0935H11.5743L9.27577 80.9119H8.51592L6.42132 74.8237H6.61572L4.51164 80.9119H3.76246Z" fill="#801D00"/>
<path d="M19.9171 77.1424H23.5207V77.7552H19.9171V77.1424ZM19.9847 80.2884H24.0957L24.0862 80.9119H19.2734L19.2829 74.0935H23.9499V74.7158H19.9942L19.9847 80.2884Z" fill="#801D00"/>
<path d="M32.1742 80.9119V74.0935H35.1163C35.8762 74.0935 36.4653 74.2452 36.885 74.5511C37.3034 74.8557 37.512 75.2884 37.512 75.8467C37.512 76.2166 37.4267 76.5283 37.2548 76.782C37.0829 77.0345 36.8482 77.2265 36.553 77.3557C36.2579 77.4861 35.9343 77.5513 35.5834 77.5513L35.7493 77.3178C36.1844 77.3178 36.5602 77.3842 36.8743 77.5169C37.1896 77.6497 37.435 77.8477 37.6104 78.1108C37.7859 78.374 37.8736 78.7 37.8736 79.09C37.8736 79.6685 37.6602 80.1165 37.2346 80.4342C36.8103 80.7531 36.169 80.9119 35.3107 80.9119H32.1742ZM32.8949 80.3181H35.3013C35.8987 80.3181 36.3563 80.2149 36.6751 80.011C36.9928 79.806 37.1517 79.48 37.1517 79.0319C37.1517 78.5897 36.9928 78.2673 36.6751 78.0622C36.3563 77.8583 35.8987 77.7552 35.3013 77.7552H32.8178V77.1613H35.0677C35.613 77.1613 36.0374 77.057 36.3385 76.8496C36.6408 76.6421 36.7913 76.3339 36.7913 75.9238C36.7913 75.5089 36.6408 75.1983 36.3385 74.9944C36.0374 74.7893 35.613 74.6874 35.0677 74.6874H32.8949V80.3181Z" fill="#801D00"/>
<path d="M49.7904 80.9119L49.7809 74.7158H47.3841V74.0935H52.8974V74.7158H50.491L50.5017 80.9119H49.7904Z" fill="#801D00"/>
<path d="M61.0742 77.1424H64.6779V77.7552H61.0742V77.1424ZM61.1418 80.2884H65.2528L65.2433 80.9119H60.4318L60.4412 74.0935H65.107V74.7158H61.1525L61.1418 80.2884Z" fill="#801D00"/>
<path d="M76.2747 80.97C75.7614 80.97 75.2872 80.8847 74.8522 80.7116C74.4171 80.5397 74.0402 80.2979 73.7225 79.9861C73.4036 79.6744 73.1559 79.3081 72.9769 78.8861C72.7979 78.4641 72.709 78.0018 72.709 77.5027C72.709 77.0025 72.7979 76.5414 72.9769 76.1194C73.1559 75.6974 73.406 75.3299 73.7272 75.0181C74.0485 74.7064 74.4266 74.4645 74.8617 74.2927C75.2967 74.1208 75.7709 74.0342 76.2842 74.0342C76.7773 74.0342 77.242 74.1172 77.677 74.2832C78.112 74.448 78.4783 74.6969 78.777 75.0276L78.3195 75.4864C78.0409 75.2007 77.7315 74.9944 77.3949 74.8676C77.057 74.7407 76.6931 74.6779 76.3031 74.6779C75.8942 74.6779 75.5148 74.7467 75.1639 74.8865C74.8131 75.0264 74.5072 75.2244 74.2476 75.4816C73.988 75.7377 73.7853 76.0364 73.6395 76.3778C73.4925 76.718 73.4202 77.0938 73.4202 77.5027C73.4202 77.9117 73.4925 78.2863 73.6395 78.6277C73.7853 78.9679 73.988 79.2666 74.2476 79.5238C74.5072 79.7799 74.8131 79.9778 75.1639 80.1177C75.5148 80.2576 75.8942 80.3275 76.3031 80.3275C76.6931 80.3275 77.057 80.2623 77.3949 80.1319C77.7315 80.0027 78.0409 79.7941 78.3195 79.5084L78.777 79.9672C78.4783 80.2979 78.112 80.548 77.677 80.7163C77.242 80.8859 76.7737 80.97 76.2747 80.97Z" fill="#801D00"/>
<path d="M91.6884 74.0935H92.3902L92.3997 80.9119H91.6884V74.0935ZM87.4222 80.9119H86.7109L86.7003 74.0935H87.4115L87.4222 80.9119ZM91.756 77.7552L87.3439 77.7659L87.3345 77.1424L91.756 77.1317V77.7552Z" fill="#801D00"/>
<path d="M101.005 80.9119V74.0935H101.598L106.303 80.0158H105.992V74.0935H106.703V80.9119H106.109L101.413 74.9897H101.725V80.9119H101.005Z" fill="#801D00"/>
<path d="M118.279 80.97C117.773 80.97 117.3 80.8847 116.862 80.7116C116.424 80.5397 116.044 80.2967 115.722 79.9814C115.401 79.6661 115.151 79.2974 114.972 78.8754C114.793 78.4534 114.704 77.9959 114.704 77.5027C114.704 77.0084 114.793 76.5508 114.972 76.1288C115.151 75.7068 115.402 75.3394 115.727 75.0276C116.052 74.7158 116.43 74.4728 116.862 74.2974C117.294 74.122 117.766 74.0342 118.279 74.0342C118.799 74.0342 119.274 74.1208 119.707 74.2927C120.138 74.4645 120.516 74.7064 120.841 75.0181C121.166 75.3299 121.417 75.6974 121.596 76.1194C121.775 76.5414 121.864 77.0025 121.864 77.5027C121.864 78.0018 121.775 78.4641 121.596 78.8861C121.417 79.3081 121.166 79.6744 120.841 79.9861C120.516 80.2979 120.138 80.5397 119.707 80.7116C119.274 80.8847 118.799 80.97 118.279 80.97ZM118.279 80.337C118.695 80.3311 119.076 80.2576 119.423 80.1177C119.772 79.9778 120.073 79.7799 120.33 79.5238C120.586 79.2666 120.788 78.9679 120.933 78.6277C121.079 78.2863 121.153 77.9117 121.153 77.5027C121.147 77.0938 121.073 76.718 120.933 76.3778C120.794 76.0364 120.594 75.7377 120.335 75.4816C120.075 75.2244 119.772 75.0264 119.423 74.8865C119.076 74.7467 118.695 74.6744 118.279 74.6672C117.876 74.6744 117.499 74.7467 117.15 74.8865C116.799 75.0264 116.493 75.2244 116.233 75.4816C115.974 75.7377 115.772 76.0364 115.63 76.3778C115.487 76.718 115.415 77.0938 115.415 77.5027C115.415 77.9046 115.487 78.278 115.63 78.6229C115.772 78.9667 115.974 79.2666 116.233 79.5238C116.493 79.7799 116.799 79.9778 117.15 80.1177C117.499 80.2576 117.876 80.3311 118.279 80.337Z" fill="#801D00"/>
<path d="M129.875 80.9119L129.865 74.0935H130.577L130.586 80.2884H134.395L134.404 80.9119H129.875Z" fill="#801D00"/>
<path d="M144.822 80.97C144.316 80.97 143.843 80.8847 143.404 80.7116C142.965 80.5397 142.586 80.2967 142.265 79.9814C141.944 79.6661 141.693 79.2974 141.514 78.8754C141.335 78.4534 141.247 77.9959 141.247 77.5027C141.247 77.0084 141.335 76.5508 141.514 76.1288C141.693 75.7068 141.945 75.3394 142.27 75.0276C142.594 74.7158 142.972 74.4728 143.404 74.2974C143.835 74.122 144.308 74.0342 144.822 74.0342C145.341 74.0342 145.816 74.1208 146.249 74.2927C146.68 74.4645 147.059 74.7064 147.383 75.0181C147.708 75.3299 147.959 75.6974 148.138 76.1194C148.317 76.5414 148.406 77.0025 148.406 77.5027C148.406 78.0018 148.317 78.4641 148.138 78.8861C147.959 79.3081 147.708 79.6744 147.383 79.9861C147.059 80.2979 146.68 80.5397 146.249 80.7116C145.816 80.8847 145.341 80.97 144.822 80.97ZM144.822 80.337C145.237 80.3311 145.618 80.2576 145.966 80.1177C146.314 79.9778 146.615 79.7799 146.872 79.5238C147.128 79.2666 147.33 78.9679 147.476 78.6277C147.622 78.2863 147.695 77.9117 147.695 77.5027C147.689 77.0938 147.616 76.718 147.476 76.3778C147.336 76.0364 147.137 75.7377 146.877 75.4816C146.618 75.2244 146.314 75.0264 145.966 74.8865C145.618 74.7467 145.237 74.6744 144.822 74.6672C144.419 74.6744 144.042 74.7467 143.692 74.8865C143.341 75.0264 143.035 75.2244 142.776 75.4816C142.516 75.7377 142.315 76.0364 142.172 76.3778C142.029 76.718 141.958 77.0938 141.958 77.5027C141.958 77.9046 142.029 78.278 142.172 78.6229C142.315 78.9667 142.516 79.2666 142.776 79.5238C143.035 79.7799 143.341 79.9778 143.692 80.1177C144.042 80.2576 144.419 80.3311 144.822 80.337Z" fill="#801D00"/>
<path d="M159.399 80.97C158.878 80.97 158.399 80.8847 157.961 80.7116C157.523 80.5397 157.143 80.2979 156.822 79.9861C156.5 79.6744 156.25 79.3081 156.071 78.8861C155.893 78.4641 155.803 78.0018 155.803 77.5027C155.803 77.0025 155.893 76.5414 156.071 76.1194C156.25 75.6974 156.501 75.3299 156.826 75.0181C157.151 74.7064 157.533 74.4645 157.971 74.2927C158.409 74.1208 158.888 74.0342 159.408 74.0342C159.927 74.0342 160.403 74.116 160.835 74.2784C161.267 74.4408 161.635 74.6874 161.94 75.0181L161.492 75.4757C161.206 75.19 160.892 74.9861 160.547 74.8628C160.203 74.7396 159.834 74.6779 159.437 74.6779C159.015 74.6779 158.627 74.7467 158.272 74.8865C157.919 75.0264 157.611 75.2244 157.348 75.4816C157.085 75.7377 156.88 76.0364 156.734 76.3778C156.588 76.718 156.514 77.0938 156.514 77.5027C156.514 77.9046 156.588 78.278 156.734 78.6229C156.88 78.9667 157.085 79.2666 157.348 79.5238C157.611 79.7799 157.919 79.9778 158.272 80.1177C158.627 80.2576 159.012 80.3275 159.427 80.3275C159.817 80.3275 160.186 80.2683 160.533 80.1521C160.88 80.0347 161.2 79.8368 161.492 79.5582L161.901 80.1035C161.576 80.3892 161.197 80.6049 160.762 80.7507C160.327 80.8977 159.872 80.97 159.399 80.97ZM161.21 80.0158V77.5027H161.901V80.1035L161.21 80.0158Z" fill="#801D00"/>
<path d="M170.322 80.9119V74.0935H171.043V80.9119H170.322Z" fill="#801D00"/>
<path d="M180.29 77.1424H183.895V77.7552H180.29V77.1424ZM180.359 80.2884H184.47L184.459 80.9119H179.648L179.657 74.0935H184.323V74.7158H180.368L180.359 80.2884Z" fill="#801D00"/>
<path d="M194.428 80.97C193.922 80.97 193.436 80.887 192.973 80.7223C192.508 80.5563 192.149 80.343 191.896 80.0833L192.178 79.5286C192.419 79.7621 192.742 79.9589 193.148 80.1177C193.554 80.2766 193.98 80.356 194.428 80.356C194.857 80.356 195.206 80.3026 195.476 80.196C195.745 80.0881 195.943 79.9447 196.07 79.7621C196.197 79.5807 196.26 79.3792 196.26 79.1587C196.26 78.892 196.184 78.6775 196.031 78.5151C195.878 78.3527 195.679 78.2246 195.432 78.131C195.185 78.0362 194.912 77.9532 194.613 77.8821C194.315 77.8109 194.016 77.7339 193.717 77.6533C193.418 77.5727 193.145 77.4636 192.894 77.3273C192.644 77.191 192.443 77.0108 192.29 76.7867C192.138 76.5627 192.061 76.2687 192.061 75.9048C192.061 75.567 192.151 75.2576 192.329 74.9743C192.508 74.6921 192.782 74.4645 193.153 74.2927C193.523 74.1208 193.997 74.0342 194.574 74.0342C194.958 74.0342 195.338 74.0876 195.715 74.1955C196.092 74.3021 196.416 74.4503 196.689 74.6388L196.445 75.2137C196.153 75.0181 195.843 74.8759 195.514 74.7846C195.187 74.6933 194.871 74.6483 194.565 74.6483C194.156 74.6483 193.818 74.704 193.552 74.8142C193.286 74.9245 193.089 75.0715 192.962 75.2576C192.836 75.4425 192.772 75.6511 192.772 75.8858C192.772 76.1514 192.849 76.3659 193.001 76.5283C193.154 76.6907 193.356 76.8176 193.606 76.9077C193.856 76.9989 194.13 77.0807 194.428 77.1518C194.727 77.223 195.025 77.3012 195.32 77.3854C195.615 77.4695 195.888 77.5786 196.138 77.7114C196.388 77.8453 196.589 78.0219 196.742 78.2424C196.895 78.4641 196.971 78.7521 196.971 79.1101C196.971 79.4409 196.88 79.7479 196.698 80.03C196.516 80.3121 196.239 80.5397 195.865 80.7116C195.492 80.8847 195.013 80.97 194.428 80.97Z" fill="#801D00"/>
<path d="M68.2175 19.1549V15.3699L90.0028 6.13922V10.2004L72.741 17.2856L90.0028 24.4632V28.5243L68.2175 19.1549Z" fill="#801D00"/>
<path d="M92.5882 34.1562L102.189 0H105.458L95.8575 34.1562H92.5882Z" fill="#801D00"/>
<path d="M129.782 19.1549L107.996 28.5243V24.4632L125.213 17.2856L107.996 10.2004V6.13922L129.782 15.3699V19.1549Z" fill="#801D00"/>
</svg>
