<svg width="193" height="79" viewBox="0 0 193 79" fill="none" xmlns="http://www.w3.org/2000/svg">
<g clip-path="url(#clip0_258_188)">
<path d="M9.97399 64.8354C8.63712 64.8354 7.37766 64.706 6.19446 64.4539C5.01935 64.2019 3.91472 63.8273 2.88058 63.3232C1.85452 62.8122 0.892021 62.1856 0 61.4295L2.40337 58.4756C3.45022 59.3797 4.60569 60.0652 5.86515 60.5173C7.12577 60.9705 8.49499 61.1959 9.97399 61.1959C11.9637 61.1959 13.5074 60.8283 14.6051 60.0849C15.704 59.3346 16.2528 58.294 16.2528 56.9564V56.9367C16.2528 55.8893 15.9755 55.0881 15.4197 54.532C14.8639 53.977 14.1406 53.5632 13.2359 53.2915C12.3323 53.0198 11.3502 52.8001 10.2709 52.6198C9.23796 52.4452 8.19804 52.2382 7.14425 51.9989C6.09162 51.7596 5.12219 51.3781 4.23825 50.8671C3.35317 50.3572 2.64255 49.6196 2.10642 48.6635C1.57028 47.7073 1.30452 46.4206 1.30452 44.8182V44.7985C1.30452 42.2388 2.15726 40.2549 3.85695 38.8456C5.56242 37.4363 7.96463 36.7322 11.0717 36.7322C12.5449 36.7322 13.9916 36.9715 15.4001 37.4432C16.8144 37.9149 18.1905 38.6386 19.5285 39.6144L17.332 42.6782C16.2852 41.8966 15.2452 41.3139 14.1984 40.9393C13.1585 40.5578 12.1185 40.3705 11.0717 40.3705C9.1929 40.3705 7.72545 40.7451 6.68553 41.4954C5.64561 42.2458 5.12912 43.3117 5.12912 44.6887V44.7083C5.12912 45.7419 5.42607 46.5304 6.03385 47.0738C6.64047 47.616 7.43543 48.0172 8.41065 48.2762C9.38586 48.534 10.4396 48.7802 11.5628 49.0057C12.5703 49.2068 13.579 49.4519 14.5866 49.7364C15.6 50.0138 16.5174 50.4277 17.3447 50.9642C18.172 51.5006 18.8306 52.2382 19.3275 53.1689C19.8255 54.1054 20.0774 55.3205 20.0774 56.8269V56.8662C20.0774 59.3993 19.1923 61.3647 17.4291 62.7544C15.6589 64.1441 13.1781 64.8354 9.97399 64.8354Z" fill="#801D00"/>
<path d="M48.6556 64.551V52.6382C48.6556 51.2486 48.2939 50.1757 47.5833 49.4196C46.8727 48.6634 45.8582 48.2819 44.5467 48.2819C43.345 48.2819 42.4218 48.6507 41.7632 49.3814C41.1104 50.1179 40.7811 51.1515 40.7811 52.4903L40.0057 48.7028C40.632 47.3906 41.4524 46.3755 42.4669 45.6714C43.4745 44.9661 44.5918 44.6112 45.8131 44.6112C47.945 44.6112 49.5984 45.3084 50.7608 46.705C51.9302 48.1016 52.5114 50.0728 52.5114 52.6197V64.551H48.6556ZM25.1869 64.551V44.8956H29.0438V64.551H25.1869ZM36.9183 64.551V52.6382C36.9183 51.2486 36.5752 50.1757 35.8969 49.4196C35.2129 48.6634 34.2504 48.2819 33.0036 48.2819C31.7372 48.2819 30.7678 48.6184 30.0768 49.2901C29.3916 49.956 29.0438 50.8994 29.0438 52.1087L28.6498 48.3212C29.2564 47.1385 30.0445 46.2205 31.0266 45.5743C32.0018 44.9338 33.081 44.6112 34.2688 44.6112C36.336 44.6112 37.9386 45.3084 39.0756 46.705C40.2126 48.1016 40.7811 50.0728 40.7811 52.6197V64.551H36.9183Z" fill="#801D00"/>
<path d="M69.4748 64.551V52.0891C69.4748 50.8035 69.127 49.8011 68.4418 49.0901C67.7508 48.379 66.7814 48.0172 65.515 48.0172C64.7466 48.0172 63.984 48.1339 63.2353 48.3721C62.4854 48.6056 61.814 48.9409 61.2201 49.3814L58.4031 47.4484C59.1461 46.5558 60.1282 45.8587 61.3426 45.3604C62.5628 44.8632 63.9135 44.6112 65.4052 44.6112C67.8664 44.6112 69.766 45.2505 71.1167 46.5234C72.4663 47.7975 73.1445 49.6011 73.1445 51.9214V64.551H69.4748ZM64.6623 64.8354C62.2531 64.8354 60.4506 64.3371 59.2431 63.3359C58.0414 62.3405 57.4348 60.8144 57.4348 58.76C57.4348 56.8015 57.9894 55.3401 59.0941 54.3713C60.1987 53.4082 61.8522 52.9226 64.0626 52.9226H69.6435L69.9081 56.0315H64.0811C63.0804 56.0315 62.3305 56.2511 61.8267 56.7044C61.323 57.1506 61.0711 57.835 61.0711 58.76C61.0711 59.7554 61.4073 60.4918 62.0729 60.9705C62.7442 61.4549 63.746 61.6942 65.0829 61.6942C66.5422 61.6942 67.6411 61.5324 68.3771 61.2156C69.1073 60.9057 69.4748 60.4074 69.4748 59.7415L69.87 62.5081C69.5268 63.0388 69.1073 63.4712 68.6036 63.8146C68.0998 64.1498 67.5186 64.4088 66.8715 64.5765C66.2198 64.751 65.4826 64.8354 64.6623 64.8354Z" fill="#801D00"/>
<path d="M79.0097 64.551V44.8956H82.8666V64.551H79.0097ZM89.8168 49.556C89.4748 49.1352 89.0426 48.8184 88.525 48.6056C88.0085 48.3918 87.4146 48.2819 86.7294 48.2819C85.5092 48.2819 84.5594 48.6241 83.8811 49.297C83.2087 49.9757 82.8666 50.9133 82.8666 52.1087L82.4726 48.3212C83.0665 47.1639 83.8419 46.2529 84.8113 45.5928C85.7738 44.9407 86.8391 44.6112 87.9958 44.6112C88.8936 44.6112 89.707 44.7407 90.4315 44.9985C91.1548 45.2575 91.788 45.639 92.3299 46.1431L89.8168 49.556Z" fill="#801D00"/>
<path d="M100.663 64.6482C99.0478 64.6482 97.8796 64.195 97.1494 63.3036C96.4261 62.4053 96.0644 61.1185 96.0644 59.4386V39.1751H99.9271V59.4768C99.9271 59.9427 100.017 60.3104 100.204 60.5763C100.399 60.841 100.676 60.9705 101.038 60.9705H102.892V64.6482H100.663ZM94.0354 48.3791V44.8957H102.892V48.3791H94.0354Z" fill="#801D00"/>
<path d="M127.989 64.8354C126.07 64.8354 124.391 64.4088 122.956 63.5556C121.516 62.7024 120.399 61.5069 119.604 59.9681C118.809 58.4293 118.409 56.6269 118.409 54.5713V47.0148C118.409 44.9465 118.809 43.1441 119.604 41.5983C120.399 40.0607 121.516 38.8652 122.956 38.012C124.391 37.1588 126.07 36.7322 127.989 36.7322C129.578 36.7322 131.031 37.0744 132.348 37.753C133.667 38.4386 134.771 39.3878 135.662 40.6168C136.554 41.8377 137.155 43.2724 137.472 44.9141H133.512C133.273 44.0297 132.872 43.2597 132.31 42.5938C131.748 41.929 131.089 41.418 130.333 41.0492C129.578 40.6873 128.795 40.5 127.989 40.5C126.296 40.5 124.94 41.1012 123.912 42.2909C122.878 43.4863 122.369 45.0563 122.369 47.0148V54.5713C122.369 56.5298 122.878 58.0998 123.912 59.2895C124.94 60.4722 126.296 61.0665 127.989 61.0665C129.184 61.0665 130.314 60.6861 131.373 59.93C132.433 59.1727 133.15 58.0813 133.512 56.6523H137.472C137.155 58.294 136.547 59.7288 135.65 60.9508C134.758 62.1787 133.653 63.129 132.343 63.8146C131.031 64.4932 129.578 64.8354 127.989 64.8354Z" fill="#801D00"/>
<path d="M150.113 64.8354C147.536 64.8354 145.546 64.0851 144.132 62.5925C142.716 61.093 142.013 58.9923 142.013 56.2777V53.0776C142.013 50.3896 142.716 48.3016 144.132 46.8275C145.546 45.3477 147.536 44.6112 150.113 44.6112C152.685 44.6112 154.68 45.3477 156.094 46.8275C157.503 48.3016 158.213 50.3896 158.213 53.0776V56.3355C158.213 59.0305 157.503 61.1254 156.094 62.6122C154.68 64.092 152.685 64.8354 150.113 64.8354ZM150.113 61.1636C151.463 61.1636 152.503 60.7369 153.246 59.8907C153.982 59.0444 154.351 57.8616 154.351 56.3355V53.0776C154.351 51.5457 153.982 50.3699 153.246 49.5363C152.503 48.7028 151.463 48.2819 150.113 48.2819C148.776 48.2819 147.736 48.7028 146.987 49.5363C146.244 50.3699 145.875 51.5457 145.875 53.0776V56.3355C145.875 57.8616 146.244 59.0444 146.987 59.8907C147.736 60.7369 148.776 61.1636 150.113 61.1636Z" fill="#801D00"/>
<path d="M166.696 64.5511V60.8792H172.923C174.95 60.8792 176.528 60.3497 177.638 59.2964C178.755 58.242 179.318 56.7564 179.318 54.8361V46.7304C179.318 44.8112 178.755 43.3245 177.638 42.2712C176.528 41.218 174.95 40.6943 172.923 40.6943H166.696V37.0166H172.806C176.139 37.0166 178.71 37.8825 180.538 39.6017C182.36 41.3278 183.271 43.7511 183.271 46.8865V54.6881C183.271 56.7691 182.864 58.5461 182.044 60.0132C181.223 61.4873 180.029 62.6122 178.465 63.388C176.902 64.1626 175.009 64.5511 172.787 64.5511H166.696ZM164.079 64.5511V37.0166H167.943V64.5511H164.079Z" fill="#801D00"/>
<path d="M189.143 40.8816V37.0166H193V40.8816H189.143ZM189.143 64.5511V44.8956H193V64.5511H189.143Z" fill="#801D00"/>
<path d="M3.83847 78.9241L1.42585 71.7653H2.20348L4.46242 78.5044H4.07418L6.4036 71.7653H7.09919L9.39857 78.5044H9.03114L11.3109 71.7653H12.0365L9.62389 78.9241H8.82662L6.62892 72.5318H6.83344L4.62534 78.9241H3.83847Z" fill="#801D00"/>
<path d="M20.7903 74.9655H24.5722V75.6106H20.7903V74.9655ZM20.862 78.2697H25.1753L25.1649 78.9241H20.1155L20.1259 71.7653H25.0216V72.4197H20.8724L20.862 78.2697Z" fill="#801D00"/>
<path d="M33.653 78.9241V71.7653H36.7404C37.5377 71.7653 38.1558 71.9249 38.5961 72.2451C39.0352 72.5654 39.2547 73.0197 39.2547 73.6059C39.2547 73.9943 39.1646 74.3215 38.9843 74.5874C38.8041 74.8534 38.5579 75.0545 38.2483 75.1909C37.9386 75.3274 37.5989 75.3956 37.2315 75.3956L37.4048 75.1505C37.8612 75.1505 38.2552 75.2198 38.5857 75.3597C38.9161 75.4996 39.1738 75.7077 39.3575 75.984C39.5412 76.2592 39.6337 76.6026 39.6337 77.0118C39.6337 77.6188 39.4095 78.0894 38.9635 78.4235C38.5175 78.7576 37.8439 78.9241 36.9449 78.9241H33.653ZM34.4098 78.2998H36.9345C37.5619 78.2998 38.0426 78.1934 38.3754 77.9784C38.7105 77.7633 38.8769 77.4211 38.8769 76.9506C38.8769 76.487 38.7105 76.1471 38.3754 75.932C38.0426 75.7181 37.5619 75.6106 36.9345 75.6106H34.3278V74.9863H36.6896C37.2615 74.9863 37.7064 74.8776 38.023 74.6591C38.3407 74.4406 38.499 74.1169 38.499 73.688C38.499 73.251 38.3407 72.9261 38.023 72.711C37.7064 72.496 37.2615 72.3885 36.6896 72.3885H34.4098V78.2998Z" fill="#801D00"/>
<path d="M52.1381 78.9241L52.1277 72.4197H49.6134V71.7653H55.3989V72.4197H52.8742L52.8846 78.9241H52.1381Z" fill="#801D00"/>
<path d="M63.9794 74.9655H67.7612V75.6106H63.9794V74.9655ZM64.051 78.2697H68.3644L68.354 78.9241H63.3046L63.315 71.7653H68.2107V72.4197H64.0614L64.051 78.2697Z" fill="#801D00"/>
<path d="M79.9295 78.9854C79.391 78.9854 78.8942 78.8952 78.4366 78.7148C77.9802 78.5333 77.585 78.2801 77.2511 77.9529C76.9172 77.6257 76.6572 77.2396 76.47 76.7968C76.2816 76.354 76.188 75.8696 76.188 75.3447C76.188 74.8198 76.2816 74.3354 76.47 73.8926C76.6572 73.4486 76.9195 73.0636 77.2569 72.7365C77.5943 72.4093 77.9906 72.1549 78.447 71.9746C78.9034 71.7942 79.4014 71.7029 79.9399 71.7029C80.4575 71.7029 80.9451 71.7907 81.4015 71.9642C81.8579 72.1376 82.2427 72.3989 82.557 72.7469L82.0763 73.2278C81.7828 72.9272 81.4593 72.711 81.1046 72.5781C80.751 72.4451 80.3685 72.3781 79.9607 72.3781C79.5308 72.3781 79.1322 72.4521 78.7636 72.5977C78.3961 72.7446 78.0761 72.9527 77.8034 73.222C77.5307 73.4914 77.3181 73.8047 77.1644 74.1631C77.0107 74.5215 76.9345 74.9146 76.9345 75.3447C76.9345 75.7736 77.0107 76.1679 77.1644 76.5263C77.3181 76.8835 77.5307 77.1968 77.8034 77.4662C78.0761 77.7356 78.3961 77.9437 78.7636 78.0905C79.1322 78.2373 79.5308 78.3102 79.9607 78.3102C80.3685 78.3102 80.751 78.242 81.1046 78.1055C81.4593 77.9691 81.7828 77.7518 82.0763 77.4512L82.557 77.9321C82.2427 78.2801 81.8579 78.5426 81.4015 78.7194C80.9451 78.8963 80.454 78.9854 79.9295 78.9854Z" fill="#801D00"/>
<path d="M90.8706 78.9241V71.7653H91.4945L96.4318 77.983H96.1048V71.7653H96.8513V78.9241H96.2273L91.3004 72.7053H91.6274V78.9241H90.8706Z" fill="#801D00"/>
<path d="M108.999 78.9854C108.466 78.9854 107.97 78.8952 107.51 78.7148C107.051 78.5333 106.652 78.2778 106.315 77.9472C105.977 77.6165 105.715 77.2292 105.528 76.7864C105.34 76.3436 105.247 75.8626 105.247 75.3447C105.247 74.8268 105.34 74.3458 105.528 73.9018C105.715 73.459 105.979 73.0741 106.32 72.7469C106.661 72.4197 107.058 72.1642 107.51 71.9792C107.965 71.7954 108.46 71.7029 108.999 71.7029C109.543 71.7029 110.042 71.7942 110.496 71.9746C110.949 72.1549 111.345 72.4093 111.686 72.7365C112.027 73.0636 112.292 73.4486 112.479 73.8926C112.666 74.3354 112.76 74.8198 112.76 75.3447C112.76 75.8696 112.666 76.354 112.479 76.7968C112.292 77.2396 112.027 77.6257 111.686 77.9529C111.345 78.2801 110.949 78.5333 110.496 78.7148C110.042 78.8952 109.543 78.9854 108.999 78.9854ZM108.999 78.3206C109.434 78.3136 109.834 78.2373 110.199 78.0905C110.564 77.9437 110.881 77.7356 111.15 77.4662C111.419 77.1968 111.63 76.8835 111.783 76.5263C111.937 76.1679 112.013 75.7736 112.013 75.3447C112.006 74.9146 111.93 74.5215 111.783 74.1631C111.637 73.8047 111.427 73.4914 111.155 73.222C110.882 72.9527 110.564 72.7446 110.199 72.5977C109.834 72.4521 109.434 72.3746 108.999 72.3677C108.576 72.3746 108.181 72.4521 107.812 72.5977C107.445 72.7446 107.125 72.9527 106.852 73.222C106.579 73.4914 106.368 73.8047 106.217 74.1631C106.068 74.5215 105.993 74.9146 105.993 75.3447C105.993 75.7667 106.068 76.1598 106.217 76.5205C106.368 76.8824 106.579 77.1968 106.852 77.4662C107.125 77.7356 107.445 77.9437 107.812 78.0905C108.181 78.2373 108.576 78.3136 108.999 78.3206Z" fill="#801D00"/>
<path d="M121.166 78.9241L121.157 71.7653H121.902L121.912 78.2697H125.909L125.919 78.9241H121.166Z" fill="#801D00"/>
<path d="M136.85 78.9854C136.319 78.9854 135.823 78.8952 135.363 78.7148C134.903 78.5333 134.504 78.2778 134.167 77.9472C133.83 77.6165 133.567 77.2292 133.38 76.7864C133.193 76.3436 133.099 75.8626 133.099 75.3447C133.099 74.8268 133.193 74.3458 133.38 73.9018C133.567 73.459 133.832 73.0741 134.173 72.7469C134.513 72.4197 134.91 72.1642 135.363 71.9792C135.816 71.7954 136.312 71.7029 136.85 71.7029C137.395 71.7029 137.895 71.7942 138.348 71.9746C138.8 72.1549 139.198 72.4093 139.539 72.7365C139.88 73.0636 140.143 73.4486 140.33 73.8926C140.519 74.3354 140.612 74.8198 140.612 75.3447C140.612 75.8696 140.519 76.354 140.33 76.7968C140.143 77.2396 139.88 77.6257 139.539 77.9529C139.198 78.2801 138.8 78.5333 138.348 78.7148C137.895 78.8952 137.395 78.9854 136.85 78.9854ZM136.85 78.3206C137.287 78.3136 137.687 78.2373 138.052 78.0905C138.416 77.9437 138.732 77.7356 139.002 77.4662C139.271 77.1968 139.482 76.8835 139.636 76.5263C139.79 76.1679 139.866 75.7736 139.866 75.3447C139.859 74.9146 139.783 74.5215 139.636 74.1631C139.489 73.8047 139.28 73.4914 139.007 73.222C138.735 72.9527 138.416 72.7446 138.052 72.5977C137.687 72.4521 137.287 72.3746 136.85 72.3677C136.428 72.3746 136.033 72.4521 135.665 72.5977C135.297 72.7446 134.976 72.9527 134.704 73.222C134.432 73.4914 134.22 73.8047 134.07 74.1631C133.92 74.5215 133.845 74.9146 133.845 75.3447C133.845 75.7667 133.92 76.1598 134.07 76.5205C134.22 76.8824 134.432 77.1968 134.704 77.4662C134.976 77.7356 135.297 77.9437 135.665 78.0905C136.033 78.2373 136.428 78.3136 136.85 78.3206Z" fill="#801D00"/>
<path d="M152.146 78.9854C151.601 78.9854 151.098 78.8952 150.638 78.7148C150.178 78.5333 149.78 78.2801 149.442 77.9529C149.105 77.6257 148.843 77.2396 148.655 76.7968C148.468 76.354 148.375 75.8696 148.375 75.3447C148.375 74.8198 148.468 74.3354 148.655 73.8926C148.843 73.4486 149.107 73.0636 149.448 72.7365C149.788 72.4093 150.189 72.1549 150.649 71.9746C151.109 71.7942 151.611 71.7029 152.157 71.7029C152.702 71.7029 153.201 71.7884 153.654 71.9595C154.107 72.1295 154.494 72.3885 154.814 72.7365L154.344 73.2174C154.045 72.9168 153.714 72.7018 153.352 72.5723C152.991 72.4428 152.603 72.3781 152.188 72.3781C151.744 72.3781 151.337 72.4521 150.965 72.5977C150.594 72.7446 150.271 72.9527 149.995 73.222C149.719 73.4914 149.504 73.8047 149.351 74.1631C149.197 74.5215 149.121 74.9146 149.121 75.3447C149.121 75.7667 149.197 76.1598 149.351 76.5205C149.504 76.8824 149.719 77.1968 149.995 77.4662C150.271 77.7356 150.594 77.9437 150.965 78.0905C151.337 78.2373 151.741 78.3102 152.177 78.3102C152.585 78.3102 152.972 78.2489 153.337 78.1264C153.701 78.0038 154.038 77.7957 154.344 77.502L154.774 78.0755C154.433 78.3749 154.034 78.6015 153.578 78.7553C153.12 78.9091 152.644 78.9854 152.146 78.9854ZM154.048 77.983V75.3447H154.774V78.0755L154.048 77.983Z" fill="#801D00"/>
<path d="M163.61 78.9241V71.7653H164.365V78.9241H163.61Z" fill="#801D00"/>
<path d="M174.07 74.9655H177.852V75.6106H174.07V74.9655ZM174.142 78.2697H178.455L178.445 78.9241H173.395L173.406 71.7653H178.301V72.4197H174.152L174.142 78.2697Z" fill="#801D00"/>
<path d="M188.906 78.9854C188.375 78.9854 187.865 78.8986 187.377 78.7241C186.891 78.5507 186.514 78.3275 186.249 78.0547L186.544 77.472C186.796 77.7171 187.136 77.924 187.561 78.0905C187.988 78.257 188.436 78.3414 188.906 78.3414C189.356 78.3414 189.722 78.2847 190.005 78.1726C190.287 78.0593 190.495 77.9078 190.628 77.7171C190.761 77.5263 190.828 77.3147 190.828 77.0835C190.828 76.8037 190.748 76.5783 190.587 76.4083C190.427 76.2372 190.218 76.1031 189.959 76.0037C189.7 75.9054 189.413 75.8187 189.1 75.7436C188.786 75.6684 188.473 75.5886 188.16 75.5031C187.847 75.4175 187.558 75.3031 187.295 75.1609C187.033 75.0175 186.822 74.8279 186.662 74.5932C186.502 74.3574 186.422 74.0487 186.422 73.6671C186.422 73.3122 186.516 72.9873 186.703 72.6902C186.891 72.3942 187.179 72.1549 187.567 71.9746C187.955 71.7942 188.452 71.7029 189.059 71.7029C189.461 71.7029 189.859 71.7595 190.255 71.8717C190.651 71.985 190.991 72.1399 191.277 72.3376L191.022 72.9411C190.714 72.7365 190.39 72.5862 190.045 72.4914C189.701 72.3954 189.37 72.348 189.049 72.348C188.62 72.348 188.265 72.4058 187.985 72.5214C187.707 72.637 187.5 72.7931 187.367 72.9873C187.234 73.1816 187.168 73.4012 187.168 73.6463C187.168 73.9261 187.248 74.1516 187.409 74.3215C187.568 74.4926 187.78 74.6256 188.042 74.7204C188.304 74.8163 188.592 74.9007 188.906 74.9759C189.219 75.051 189.531 75.1331 189.841 75.2221C190.151 75.31 190.437 75.4245 190.699 75.5644C190.962 75.7043 191.173 75.8904 191.334 76.1216C191.493 76.354 191.574 76.6569 191.574 77.0315C191.574 77.3795 191.478 77.7021 191.288 77.998C191.097 78.2951 190.806 78.5333 190.414 78.7148C190.021 78.8952 189.519 78.9854 188.906 78.9854Z" fill="#801D00"/>
<path d="M66.4948 18.6965V15.005L87.73 6.0022V9.96311L70.9041 16.8733L87.73 23.8737V27.8346L66.4948 18.6965Z" fill="#801D00"/>
<path d="M90.2501 33.3274L99.6082 0.0145874H102.795L93.4369 33.3274H90.2501Z" fill="#801D00"/>
<path d="M126.505 18.6965L105.269 27.8346V23.8737L122.051 16.8733L105.269 9.96311V6.0022L126.505 15.005V18.6965Z" fill="#801D00"/>
</g>
<defs>
<clipPath id="clip0_258_188">
<rect width="193" height="79" fill="white"/>
</clipPath>
</defs>
</svg>
